<svg width="72" height="72" viewBox="0 0 72 72" fill="none" xmlns="http://www.w3.org/2000/svg">
<path opacity="0.08" d="M53.132 38.3381C52.9558 35.9085 51.171 33.8994 48.779 33.4381L48.57 30.4472C48.2671 26.1058 46.2518 22.0627 42.9676 19.2074C39.6833 16.352 35.3993 14.9185 31.058 15.2221L30.874 15.2351C26.533 15.5386 22.4904 17.5541 19.6355 20.8382C16.7806 24.1224 15.3473 28.4062 15.651 32.7471L17.575 60.2721L28.549 59.5051L39.522 58.7381L50.5 57.9701L49.5 43.8001C51.8075 43.0116 53.2974 40.7711 53.132 38.3381Z" fill="black"/>
<path d="M52.991 56.0361L19.991 56.0361V28.4431C19.991 24.0909 21.7206 19.9172 24.7985 16.8402C27.8765 13.7632 32.0508 12.0351 36.403 12.0361H36.591C45.6493 12.0406 52.9904 19.3848 52.991 28.4431V56.0361Z" fill="url(#paint0_linear_39_9978)"/>
<path d="M42 49.915V56.035H31V49.915C34.5146 51.4084 38.4854 51.4084 42 49.915Z" fill="url(#paint1_linear_39_9978)"/>
<path d="M42 26.0352C37.46 33.6752 23 34.0352 23 34.0352V39.0352C23.0245 44.2469 26.18 48.9328 31 50.9152C34.5146 52.4085 38.4854 52.4085 42 50.9152C43.4822 50.2878 44.8402 49.4005 46.01 48.2952C48.5602 45.8909 50.0041 42.54 50 39.0352V31.0352C50 31.0352 44.286 30.6152 42 26.0352Z" fill="url(#paint2_linear_39_9978)"/>
<path d="M50 36.0352V39.7492C50 42.8862 46.353 45.6292 41.36 46.6282C41.0562 45.6931 40.193 45.0535 39.21 45.0352H36.364C34.9833 45.0352 33.864 46.1544 33.864 47.5352C33.864 48.9159 34.9833 50.0352 36.364 50.0352H39.206C40.1009 50.0223 40.9107 49.5019 41.294 48.6932C47.53 47.6202 52 44.0792 52 39.7492V36.0352H50Z" fill="url(#paint3_linear_39_9978)"/>
<path d="M37.5 47.0352V45.0352C44.276 45.0352 50 41.6982 50 37.7492V34.0352H52V37.7492C52 42.9562 45.627 47.0352 37.5 47.0352Z" fill="#005E5D"/>
<path d="M41.496 43.0352H38.496C37.1153 43.0352 35.996 44.1544 35.996 45.5352C35.996 46.9159 37.1153 48.0352 38.496 48.0352H41.496C42.8767 48.0352 43.996 46.9159 43.996 45.5352C43.996 44.1544 42.8767 43.0352 41.496 43.0352Z" fill="#FFD200"/>
<path d="M51.6 42.0354C50.7163 42.0354 50 41.319 50 40.4354V32.8354C50 31.9517 50.7163 31.2354 51.6 31.2354C54.5823 31.2354 57 33.653 57 36.6354C57 39.6177 54.5823 42.0354 51.6 42.0354Z" fill="#005E5D"/>
<defs>
<linearGradient id="paint0_linear_39_9978" x1="33.4461" y1="44.2591" x2="55.4893" y2="22.2153" gradientUnits="userSpaceOnUse">
<stop stop-color="#005E5D"/>
<stop offset="0.644" stop-color="#009796"/>
</linearGradient>
<linearGradient id="paint1_linear_39_9978" x1="28.859" y1="55.339" x2="37.9283" y2="46.2698" gradientUnits="userSpaceOnUse">
<stop stop-color="#005E5D"/>
<stop offset="0.448" stop-color="#008685"/>
<stop offset="0.644" stop-color="#009796"/>
</linearGradient>
<linearGradient id="paint2_linear_39_9978" x1="41.869" y1="34.1807" x2="23.4584" y2="52.5903" gradientUnits="userSpaceOnUse">
<stop stop-color="#00C5BC"/>
<stop offset="1" stop-color="#009286"/>
</linearGradient>
<linearGradient id="paint3_linear_39_9978" x1="33.996" y1="43.0352" x2="51.996" y2="43.0352" gradientUnits="userSpaceOnUse">
<stop stop-opacity="0.05"/>
<stop offset="1" stop-opacity="0.12"/>
</linearGradient>
</defs>
</svg>
