<svg width="72" height="72" viewBox="0 0 72 72" fill="none" xmlns="http://www.w3.org/2000/svg">
<path opacity="0.08" d="M52.75 50.314C52.738 50.252 52.723 50.191 52.71 50.13C52.658 49.882 52.596 49.64 52.521 49.402C52.513 49.376 52.509 49.348 52.5 49.321C52.1043 48.0326 51.3309 46.8928 50.28 46.049C48.9206 44.7062 47.7551 43.1805 46.817 41.516C46.617 41.154 46.442 40.783 46.273 40.406C46.209 40.261 46.146 40.114 46.086 39.964C45.939 39.607 45.795 39.248 45.663 38.864C45.38 38.054 45.127 37.17 44.875 36.185C44.669 35.37 44.467 34.473 44.251 33.495C43.903 31.888 43.529 30.028 43.061 27.819C42.7642 26.6789 42.3201 25.5823 41.74 24.557V24.557L41.721 24.528C41.521 24.171 41.299 23.828 41.067 23.488C41.01 23.406 40.952 23.327 40.894 23.246C40.686 22.958 40.469 22.678 40.239 22.407C40.197 22.357 40.158 22.307 40.115 22.256C39.855 21.956 39.579 21.674 39.295 21.4C39.214 21.322 39.131 21.247 39.048 21.171C38.787 20.933 38.518 20.703 38.238 20.487C38.193 20.452 38.151 20.415 38.106 20.381C37.788 20.142 37.457 19.923 37.119 19.716C37.028 19.661 36.936 19.607 36.844 19.554C36.513 19.364 36.176 19.186 35.829 19.028C35.804 19.017 35.78 19.003 35.756 18.992C35.696 18.966 35.635 18.945 35.575 18.919L35.488 17.7C35.3952 16.3771 34.7806 15.1452 33.7796 14.2754C32.7785 13.4056 31.4729 12.9691 30.15 13.062C28.8271 13.1548 27.5953 13.7693 26.7255 14.7704C25.8557 15.7715 25.4192 17.0771 25.512 18.4L25.597 19.616C25.542 19.649 25.484 19.679 25.429 19.716C25.406 19.73 25.384 19.747 25.361 19.762C25.039 19.962 24.73 20.19 24.43 20.424C24.346 20.49 24.262 20.555 24.18 20.624C23.873 20.876 23.58 21.139 23.295 21.424C23.255 21.464 23.218 21.507 23.179 21.548C22.932 21.801 22.697 22.066 22.471 22.338C22.4 22.425 22.329 22.511 22.259 22.599C22.015 22.91 21.782 23.229 21.566 23.561C21.53 23.616 21.499 23.673 21.466 23.728C21.2767 24.028 21.0997 24.3353 20.935 24.65C20.888 24.738 20.841 24.824 20.797 24.913C20.614 25.28 20.444 25.653 20.297 26.034C20.297 26.045 20.287 26.055 20.283 26.066C19.8513 27.1617 19.5642 28.309 19.429 29.479C19.273 31.732 19.161 33.626 19.041 35.266C18.962 36.266 18.887 37.181 18.797 38.016C18.685 39.027 18.557 39.938 18.389 40.779C18.312 41.179 18.22 41.554 18.124 41.928C18.085 42.085 18.043 42.239 18 42.392C17.885 42.792 17.763 43.181 17.616 43.567C16.9183 45.3461 15.9759 47.0192 14.816 48.538C13.8932 49.5197 13.2861 50.7556 13.073 52.086V52.086C13.068 52.113 13.068 52.142 13.064 52.169C13.023 52.415 12.995 52.663 12.978 52.916C12.978 52.978 12.967 53.04 12.964 53.103C12.949 53.4102 12.952 53.7181 12.973 54.025C13.16 56.691 15.567 59.202 20 58.892L27.582 58.362C27.4647 59.0265 27.4211 59.7019 27.452 60.376C27.5801 61.9503 28.3237 63.4106 29.5216 64.4401C30.7196 65.4695 32.2751 65.9851 33.8508 65.8749C35.4264 65.7648 36.8951 65.0377 37.9381 63.8515C38.9811 62.6654 39.5143 61.1158 39.422 59.539C39.3589 58.8669 39.2218 58.2039 39.013 57.562L46.595 57.032C51.028 56.722 53.062 53.901 52.876 51.232C52.8516 50.9238 52.8095 50.6173 52.75 50.314V50.314ZM30.326 15.558C30.6535 15.5351 30.9823 15.577 31.2937 15.6812C31.605 15.7854 31.8928 15.9499 32.1405 16.1654C32.3883 16.3808 32.5911 16.6429 32.7376 16.9368C32.884 17.2306 32.9712 17.5504 32.994 17.878L33.015 18.178C31.3484 17.8933 29.6378 18.0129 28.027 18.527L28.006 18.227C27.983 17.8994 28.0248 17.5704 28.1289 17.259C28.2331 16.9475 28.3976 16.6597 28.6131 16.4118C28.8285 16.164 29.0907 15.961 29.3846 15.8145C29.6785 15.668 29.9984 15.5808 30.326 15.558V15.558Z" fill="black"/>
<path d="M42 57C42 58.5913 41.3679 60.1174 40.2426 61.2426C39.1174 62.3679 37.5913 63 36 63C34.4087 63 32.8826 62.3679 31.7574 61.2426C30.6321 60.1174 30 58.5913 30 57C30.1237 55.282 30.5186 53.5945 31.17 52C32.35 48.59 34 44.5 34 40C34 33 38 33 38 40C38 44.5 39.65 48.59 40.83 52C41.4814 53.5945 41.8763 55.282 42 57V57Z" fill="url(#paint0_linear_123_17140)"/>
<path d="M36 12.5C36.663 12.5 37.2989 12.7634 37.7678 13.2322C38.2366 13.7011 38.5 14.337 38.5 15V25C38.5 25.663 38.2366 26.2989 37.7678 26.7678C37.2989 27.2366 36.663 27.5 36 27.5C35.337 27.5 34.7011 27.2366 34.2322 26.7678C33.7634 26.2989 33.5 25.663 33.5 25V15C33.5 14.337 33.7634 13.7011 34.2322 13.2322C34.7011 12.7634 35.337 12.5 36 12.5ZM36 10C34.6739 10 33.4021 10.5268 32.4645 11.4645C31.5268 12.4021 31 13.6739 31 15V25C31 26.3261 31.5268 27.5979 32.4645 28.5355C33.4021 29.4732 34.6739 30 36 30C37.3261 30 38.5979 29.4732 39.5355 28.5355C40.4732 27.5979 41 26.3261 41 25V15C41 14.3434 40.8707 13.6932 40.6194 13.0866C40.3681 12.48 39.9998 11.9288 39.5355 11.4645C39.0712 11.0002 38.52 10.6319 37.9134 10.3806C37.3068 10.1293 36.6566 10 36 10V10Z" fill="#00716B"/>
<path d="M56 49.65C56 52.33 53.77 55 49.33 55H22.67C18.23 55 16 52.33 16 49.65C15.977 48.6534 16.1636 47.663 16.5478 46.7431C16.9319 45.8232 17.505 44.9943 18.23 44.31C19.3759 42.9981 20.3565 41.5506 21.15 40C21.23 39.85 21.3 39.7 21.37 39.55C21.6 39.04 21.8 38.53 21.98 38C22.11 37.62 22.22 37.23 22.33 36.82C22.4 36.55 22.47 36.28 22.54 36C22.58 35.85 22.61 35.7 22.64 35.55C22.74 35.09 22.84 34.6 22.93 34.09C22.94 34.06 22.94 34.03 22.95 34C22.96 33.91 22.98 33.82 22.99 33.73C23.12 33 23.24 32.21 23.37 31.36C23.6 29.74 23.84 27.85 24.16 25.62C25.03 20.85 28.6 16.49 33.4 15.32C35.1071 14.8933 36.8929 14.8933 38.6 15.32C43.4 16.49 46.97 20.85 47.84 25.62C48.16 27.85 48.4 29.74 48.63 31.36C48.76 32.21 48.88 33 49.01 33.73C49.0218 33.8208 49.0385 33.911 49.06 34C49.0584 34.0304 49.0618 34.0608 49.07 34.09C49.16 34.6 49.26 35.09 49.36 35.55C49.39 35.7 49.42 35.85 49.46 36C49.53 36.28 49.6 36.55 49.67 36.82C49.78 37.23 49.89 37.62 50.02 38C50.2 38.53 50.4 39.04 50.63 39.55C50.7 39.7 50.77 39.85 50.85 40C51.6435 41.5506 52.6241 42.9981 53.77 44.31C54.495 44.9943 55.0681 45.8232 55.4523 46.7431C55.8364 47.663 56.023 48.6534 56 49.65V49.65Z" fill="url(#paint1_linear_123_17140)"/>
<path opacity="0.1" d="M42 57H30C30.1237 55.282 30.5186 53.5945 31.17 52H40.83C41.4814 53.5945 41.8763 55.282 42 57V57Z" fill="black"/>
<path d="M56 49.655C56 52.327 53.774 55 49.33 55H22.67C18.226 55 16 52.327 16 49.655C15.9979 49.0051 16.0769 48.3575 16.235 47.7271H55.765C55.9232 48.3575 56.0021 49.0051 56 49.655Z" fill="url(#paint2_linear_123_17140)"/>
<path d="M46.756 22.273H25.244C26.0056 20.5834 27.1319 19.0834 28.5421 17.8809C29.9523 16.6783 31.6113 15.8031 33.4 15.318C35.1074 14.894 36.8926 14.894 38.6 15.318C40.3887 15.8031 42.0478 16.6783 43.458 17.8809C44.8681 19.0834 45.9945 20.5834 46.756 22.273V22.273Z" fill="url(#paint3_linear_123_17140)"/>
<path d="M50.85 40H21.15C21.23 39.85 21.3 39.7 21.37 39.55C21.6 39.04 21.8 38.53 21.98 38H50.02C50.2 38.53 50.4 39.04 50.63 39.55C50.7 39.7 50.77 39.85 50.85 40Z" fill="url(#paint4_linear_123_17140)"/>
<path d="M49.46 35H22.54C22.58 34.85 22.61 34.7 22.64 34.55C22.74 34.09 22.84 33.6 22.93 33.09C22.94 33.06 22.94 33.03 22.95 33H49.06C49.0584 33.0303 49.0618 33.0608 49.07 33.09C49.16 33.6 49.26 34.09 49.36 34.55C49.39 34.7 49.42 34.85 49.46 35Z" fill="url(#paint5_linear_123_17140)"/>
<defs>
<linearGradient id="paint0_linear_123_17140" x1="44.664" y1="22.637" x2="41.131" y2="36.076" gradientUnits="userSpaceOnUse">
<stop stop-color="#009796"/>
<stop offset="1" stop-color="#005E5D"/>
</linearGradient>
<linearGradient id="paint1_linear_123_17140" x1="56.797" y1="2.81401" x2="30.918" y2="56.728" gradientUnits="userSpaceOnUse">
<stop stop-color="#00C4BB"/>
<stop offset="1" stop-color="#009185"/>
</linearGradient>
<linearGradient id="paint2_linear_123_17140" x1="1748.28" y1="178.532" x2="1719.28" y2="865.828" gradientUnits="userSpaceOnUse">
<stop stop-color="#009796"/>
<stop offset="1" stop-color="#005E5D"/>
</linearGradient>
<linearGradient id="paint3_linear_123_17140" x1="1089.23" y1="-46.115" x2="1052.87" y2="198.934" gradientUnits="userSpaceOnUse">
<stop stop-color="#00C4BB"/>
<stop offset="1" stop-color="#009185"/>
</linearGradient>
<linearGradient id="paint4_linear_123_17140" x1="42.024" y1="27.314" x2="33.576" y2="44.914" gradientUnits="userSpaceOnUse">
<stop stop-color="#E6BD00"/>
<stop offset="0.238" stop-color="#E5BC00"/>
<stop offset="1" stop-color="#FFD100"/>
</linearGradient>
<linearGradient id="paint5_linear_123_17140" x1="1139.29" y1="79.004" x2="1137.86" y2="119.184" gradientUnits="userSpaceOnUse">
<stop stop-color="#E6BD00"/>
<stop offset="0.238" stop-color="#E5BC00"/>
<stop offset="1" stop-color="#FFD100"/>
</linearGradient>
</defs>
</svg>
