<svg width="72" height="72" viewBox="0 0 72 72" fill="none" xmlns="http://www.w3.org/2000/svg">
<path opacity="0.08" fill-rule="evenodd" clip-rule="evenodd" d="M56.9 52.3L54.9 23.4C54.8 22.3 53.9 21.5 52.8 21.6L8.8 24.6C7.7 24.7 6.9 25.6 7 26.7L9 55.6L2 56.1L2.1 58.1C2.2 59.2 3.1 60 4.3 60L62.1 56C63.2 55.9 64 55 64 53.8L63.9 51.8L56.9 52.3Z" fill="black"/>
<path fill-rule="evenodd" clip-rule="evenodd" d="M58 20H14C12.9 20 12 20.9 12 22V51H60V22C60 20.9 59.1 20 58 20Z" fill="url(#paint0_linear_119_17081)"/>
<path d="M58 22.1H14V51.1H58V22.1Z" fill="url(#paint1_linear_119_17081)"/>
<path fill-rule="evenodd" clip-rule="evenodd" d="M65 55H7C5.9 55 5 54.1 5 53V51H67V53C67 54.1 66.1 55 65 55Z" fill="url(#paint2_linear_119_17081)"/>
<path fill-rule="evenodd" clip-rule="evenodd" d="M40 53H31C29.9 53 29 52.1 29 51H42C42 52.1 41.1 53 40 53Z" fill="url(#paint3_linear_119_17081)"/>
<path opacity="0.08" fill-rule="evenodd" clip-rule="evenodd" d="M39 22L14 47V22H39Z" fill="black"/>
<path d="M27 47.7H44V32C44 27.6 40.4 24 36 24H35C30.6 24 27 27.6 27 32V47.7Z" fill="url(#paint4_linear_119_17081)"/>
<path d="M39 42.3V48.4001H32V42.3C33.1 42.7 34.3 42.9001 35.5 42.9001C36.7 42.9001 37.9 42.7 39 42.3Z" fill="url(#paint5_linear_119_17081)"/>
<path d="M38.1 30.5C35.9 34.4 29 34.5 29 34.5V37C29 39.7 30.6 42 32.9 43C33.7 43.4 34.6 43.6 35.5 43.6C36.4 43.6 37.3 43.4 38.1 43C38.8 42.7 39.5 42.2 40 41.7C41.2 40.5 41.9 38.9 41.9 37V33C42 33 39.3 32.8 38.1 30.5Z" fill="url(#paint6_linear_119_17081)"/>
<path d="M46 46.5V49H25V46.5C26.9 45.8 29.5 45.2 32 45C32 46.1 33.6 47 35.5 47C37.4 47 39 46.1 39 45C41.5 45.3 44.1 45.8 46 46.5Z" fill="url(#paint7_linear_119_17081)"/>
<path d="M51 36L47 31.9V25H55V31.8L51 36Z" fill="#009286"/>
<path d="M51 36V28L55 31.9L51 36Z" fill="url(#paint8_linear_119_17081)"/>
<path opacity="0.08" fill-rule="evenodd" clip-rule="evenodd" d="M56.9 52.3L54.9 23.4C54.8 22.3 53.9 21.5 52.8 21.6L8.8 24.6C7.7 24.7 6.9 25.6 7 26.7L9 55.6L2 56.1L2.1 58.1C2.2 59.2 3.1 60 4.3 60L62.1 56C63.2 55.9 64 55 64 53.8L63.9 51.8L56.9 52.3Z" fill="black"/>
<path fill-rule="evenodd" clip-rule="evenodd" d="M58 20H14C12.9 20 12 20.9 12 22V51H60V22C60 20.9 59.1 20 58 20Z" fill="url(#paint9_linear_119_17081)"/>
<path d="M58 22.1H14V51.1H58V22.1Z" fill="url(#paint10_linear_119_17081)"/>
<path fill-rule="evenodd" clip-rule="evenodd" d="M65 55H7C5.9 55 5 54.1 5 53V51H67V53C67 54.1 66.1 55 65 55Z" fill="url(#paint11_linear_119_17081)"/>
<path fill-rule="evenodd" clip-rule="evenodd" d="M40 53H31C29.9 53 29 52.1 29 51H42C42 52.1 41.1 53 40 53Z" fill="url(#paint12_linear_119_17081)"/>
<path opacity="0.08" fill-rule="evenodd" clip-rule="evenodd" d="M39 22L14 47V22H39Z" fill="black"/>
<path d="M27 47.7H44V32C44 27.6 40.4 24 36 24H35C30.6 24 27 27.6 27 32V47.7Z" fill="url(#paint13_linear_119_17081)"/>
<path d="M39 42.3V48.4001H32V42.3C33.1 42.7 34.3 42.9001 35.5 42.9001C36.7 42.9001 37.9 42.7 39 42.3Z" fill="url(#paint14_linear_119_17081)"/>
<path d="M38.1 30.5C35.9 34.4 29 34.5 29 34.5V37C29 39.7 30.6 42 32.9 43C33.7 43.4 34.6 43.6 35.5 43.6C36.4 43.6 37.3 43.4 38.1 43C38.8 42.7 39.5 42.2 40 41.7C41.2 40.5 41.9 38.9 41.9 37V33C42 33 39.3 32.8 38.1 30.5Z" fill="url(#paint15_linear_119_17081)"/>
<path d="M46 46.5V49H25V46.5C26.9 45.8 29.5 45.2 32 45C32 46.1 33.6 47 35.5 47C37.4 47 39 46.1 39 45C41.5 45.3 44.1 45.8 46 46.5Z" fill="url(#paint16_linear_119_17081)"/>
<path d="M51 36L47 31.9V25H55V31.8L51 36Z" fill="#009286"/>
<path d="M51 36V28L55 31.9L51 36Z" fill="url(#paint17_linear_119_17081)"/>
<defs>
<linearGradient id="paint0_linear_119_17081" x1="54.0261" y1="-8.8122" x2="31.1928" y2="48.3545" gradientUnits="userSpaceOnUse">
<stop stop-color="#009695"/>
<stop offset="1" stop-color="#005E5D"/>
</linearGradient>
<linearGradient id="paint1_linear_119_17081" x1="41.2122" y1="27.6062" x2="-1.7878" y2="101.273" gradientUnits="userSpaceOnUse">
<stop stop-color="#00C4BB"/>
<stop offset="1" stop-color="#009185"/>
</linearGradient>
<linearGradient id="paint2_linear_119_17081" x1="51.4142" y1="19.1127" x2="41.2476" y2="40.9461" gradientUnits="userSpaceOnUse">
<stop stop-color="#009695"/>
<stop offset="1" stop-color="#005E5D"/>
</linearGradient>
<linearGradient id="paint3_linear_119_17081" x1="59.5072" y1="37.9123" x2="15.203" y2="63.1657" gradientUnits="userSpaceOnUse">
<stop stop-color="#009695"/>
<stop offset="1" stop-color="#005E5D"/>
</linearGradient>
<linearGradient id="paint4_linear_119_17081" x1="16.3926" y1="67.9177" x2="74.8107" y2="-21.5448" gradientUnits="userSpaceOnUse">
<stop stop-color="#005E5D"/>
<stop offset="0.6445" stop-color="#009695"/>
</linearGradient>
<linearGradient id="paint5_linear_119_17081" x1="23.7622" y1="62.059" x2="37.2861" y2="42.8136" gradientUnits="userSpaceOnUse">
<stop stop-color="#005E5D"/>
<stop offset="0.4477" stop-color="#008584"/>
<stop offset="0.6445" stop-color="#009695"/>
</linearGradient>
<linearGradient id="paint6_linear_119_17081" x1="51.1759" y1="20.4362" x2="-9.45329" y2="84.9702" gradientUnits="userSpaceOnUse">
<stop stop-color="#00C4BB"/>
<stop offset="1" stop-color="#009185"/>
</linearGradient>
<linearGradient id="paint7_linear_119_17081" x1="38.5278" y1="31.112" x2="39.8628" y2="23.7698" gradientUnits="userSpaceOnUse">
<stop stop-color="#005E5D"/>
<stop offset="0.6445" stop-color="#009695"/>
</linearGradient>
<linearGradient id="paint8_linear_119_17081" x1="50.0321" y1="36.3801" x2="57.0992" y2="21.0829" gradientUnits="userSpaceOnUse">
<stop stop-color="#FFD645"/>
<stop offset="1" stop-color="#FDB813"/>
</linearGradient>
<linearGradient id="paint9_linear_119_17081" x1="54.0261" y1="-8.8122" x2="31.1928" y2="48.3545" gradientUnits="userSpaceOnUse">
<stop stop-color="#009695"/>
<stop offset="1" stop-color="#005E5D"/>
</linearGradient>
<linearGradient id="paint10_linear_119_17081" x1="41.2122" y1="27.6062" x2="-1.7878" y2="101.273" gradientUnits="userSpaceOnUse">
<stop stop-color="#00C4BB"/>
<stop offset="1" stop-color="#009185"/>
</linearGradient>
<linearGradient id="paint11_linear_119_17081" x1="51.4142" y1="19.1127" x2="41.2476" y2="40.9461" gradientUnits="userSpaceOnUse">
<stop stop-color="#009695"/>
<stop offset="1" stop-color="#005E5D"/>
</linearGradient>
<linearGradient id="paint12_linear_119_17081" x1="59.5072" y1="37.9123" x2="15.203" y2="63.1657" gradientUnits="userSpaceOnUse">
<stop stop-color="#009695"/>
<stop offset="1" stop-color="#005E5D"/>
</linearGradient>
<linearGradient id="paint13_linear_119_17081" x1="16.3926" y1="67.9177" x2="74.8107" y2="-21.5448" gradientUnits="userSpaceOnUse">
<stop stop-color="#005E5D"/>
<stop offset="0.6445" stop-color="#009695"/>
</linearGradient>
<linearGradient id="paint14_linear_119_17081" x1="23.7622" y1="62.059" x2="37.2861" y2="42.8136" gradientUnits="userSpaceOnUse">
<stop stop-color="#005E5D"/>
<stop offset="0.4477" stop-color="#008584"/>
<stop offset="0.6445" stop-color="#009695"/>
</linearGradient>
<linearGradient id="paint15_linear_119_17081" x1="51.1759" y1="20.4362" x2="-9.45329" y2="84.9702" gradientUnits="userSpaceOnUse">
<stop stop-color="#00C4BB"/>
<stop offset="1" stop-color="#009185"/>
</linearGradient>
<linearGradient id="paint16_linear_119_17081" x1="38.5278" y1="31.112" x2="39.8628" y2="23.7698" gradientUnits="userSpaceOnUse">
<stop stop-color="#005E5D"/>
<stop offset="0.6445" stop-color="#009695"/>
</linearGradient>
<linearGradient id="paint17_linear_119_17081" x1="50.0321" y1="36.3801" x2="57.0992" y2="21.0829" gradientUnits="userSpaceOnUse">
<stop stop-color="#FFD645"/>
<stop offset="1" stop-color="#FDB813"/>
</linearGradient>
</defs>
</svg>
