<svg width="72" height="72" viewBox="0 0 72 72" fill="none" xmlns="http://www.w3.org/2000/svg">
<path opacity="0.08" d="M32 64C45.2548 64 56 53.2548 56 40C56 26.7452 45.2548 16 32 16C18.7452 16 8 26.7452 8 40C8 53.2548 18.7452 64 32 64Z" fill="black"/>
<path d="M36 60C40.7468 60 45.3869 58.5924 49.3337 55.9553C53.2805 53.3181 56.3566 49.5698 58.1731 45.1844C59.9896 40.799 60.4649 35.9734 59.5389 31.3178C58.6128 26.6623 56.327 22.3859 52.9706 19.0294C49.6141 15.673 45.3377 13.3872 40.6822 12.4612C36.0266 11.5351 31.201 12.0104 26.8156 13.8269C22.4302 15.6434 18.6819 18.7195 16.0447 22.6663C13.4076 26.6131 12 31.2533 12 36C11.9924 39.1539 12.6079 42.2782 13.8113 45.1935C15.0147 48.1087 16.7823 50.7575 19.0124 52.9876C21.2425 55.2178 23.8913 56.9853 26.8066 58.1887C29.7218 59.3921 32.8461 60.0077 36 60V60Z" fill="#00AEA0"/>
<path d="M50.4 31.7C50.5 31.7 52.9 24 49 18.8L48.5 18.3C45.8102 15.3131 42.2956 13.1904 38.4 12.2C37.6029 12.1168 36.8013 12.0834 36 12.1C31.0862 12.0615 26.2799 13.5386 22.2358 16.3301C18.1917 19.1216 15.1064 23.0918 13.4 27.7C12.7961 31.0945 13.1078 34.5887 14.303 37.8228C15.4982 41.0568 17.5337 43.9139 20.2 46.1C21.2 47 24.3 48.3 27.9 49.5C27.6676 50.9559 27.534 52.426 27.5 53.9V56.7C29.0853 57.7819 30.9838 58.3093 32.9 58.2C33.7057 58.2028 34.4983 57.9961 35.2 57.6C34.7042 56.9041 34.0958 56.2958 33.4 55.8C33.3004 54.2601 33.4013 52.7138 33.7 51.2C37.2 51.8 40.7 51.8 43.1 50.6C45 49.6 50.6 44.6 51.7 38.9C52.2 36.6 52.2 33.4 50.4 31.7Z" fill="white"/>
<path d="M35.2 57.5999C34.4983 57.996 33.7057 58.2028 32.9 58.2C30.9838 58.3093 29.0853 57.7819 27.5 56.7C27.4834 57.3017 27.5169 57.9038 27.6 58.5C30.2879 59.4977 33.1329 60.0057 36 60H36.3C36.099 59.1339 35.7248 58.3176 35.2 57.5999V57.5999Z" fill="#FFD200"/>
<path d="M34.4 42.9C34.3 43 35.2 46.5 39.9 46.5C44.7 46.4 45.4 42.7 45.4 42.7C41.8275 43.8149 38.0106 43.8843 34.4 42.9" fill="#005E5D"/>
<path d="M44.5 29.2V30.6C49.5 28 51.1 30.5 51.1 30.4C49.8 27.4 44.5 29.2 44.5 29.2Z" fill="#005E5D"/>
<path d="M38.4 29.7C38.4 29.7 33.4 26.4 28.6 31.5C28.8 31.7 32.6 27.8 38.4 31.1V29.7Z" fill="#005E5D"/>
<path d="M52.5 21.2C51.7242 19.0181 50.3774 17.0843 48.6 15.6C45.4461 13.6544 41.8885 12.4571 38.2 12.1H38C37.3368 12.0168 36.6682 11.9834 36 12C31.0562 12.009 26.235 13.5398 22.1916 16.3845C18.1482 19.2293 15.0786 23.2498 13.4 27.9V27.8C13.3092 27.9498 13.2738 28.1267 13.3 28.3C13.1696 28.589 13.069 28.8905 13 29.2C12.9 29.5 12.8 30 12.7 30.4C12.6 30.8 12.6 30.9 12.5 31.2C12.3845 31.6584 12.3175 32.1276 12.3 32.6C12.3 32.7 12.2 32.9 12.2 33C12.1 34 12 35 12 36C12.1 37 12.2 38 12.3 39.1C12.4 39.8 12.5 40.6 12.6 41.2C13.4766 45.0568 15.2836 48.6405 17.8633 51.6385C20.4431 54.6365 23.7171 56.9579 27.4 58.4L27.7 58.5C27.5808 57.0031 27.5474 55.5007 27.6 54C27.6221 52.6952 27.7223 51.3928 27.9 50.1C27.9542 49.9382 27.9878 49.7702 28 49.6C25.6733 48.4864 23.7257 46.7127 22.4 44.5C21.8514 44.6951 21.263 44.7516 20.6872 44.6644C20.1115 44.5771 19.5662 44.3489 19.1 44C18.9 43.8 18.6 43.7 18.4 43.5C18.5721 42.4815 19.1045 41.5588 19.9 40.9C21.1 39.7 24.7 38.9 26.1 37.1C29.8 32.4 29 23.1 34 19.4C35.086 18.4538 36.3614 17.7503 37.7409 17.3365C39.1205 16.9226 40.5725 16.8079 42 17C46.2 17.5 48 19.4 49.7 22.2C52.2 26.3 50.5 31.7 50.5 31.7C50.5 31.7 54.6 28.7 52.5 21.2Z" fill="#005E5D"/>
<path d="M39.2 55.7C38.9 55.2 33.4 53.4 33.4 53.4C33.4 53.8 33.3 54.2 33.3 54.6V55.9C34.7617 56.839 35.8014 58.3091 36.2 60C37.4394 59.9995 38.6767 59.8992 39.9 59.7C39.9 58.4 39.9 56.6 39.2 55.7Z" fill="#005E5D"/>
<path d="M34.7 31.6C34.6457 31.5933 34.5906 31.5987 34.5387 31.616C34.4868 31.6333 34.4394 31.662 34.4 31.7C34.5886 32.0147 34.6964 32.3711 34.7138 32.7375C34.7313 33.1039 34.6578 33.4689 34.5 33.8C34.333 34.1335 34.0758 34.4134 33.7576 34.6078C33.4394 34.8023 33.0729 34.9035 32.7 34.9C32.5268 34.9262 32.3499 34.8908 32.2 34.8C32.2 36.6 33.4 38.5 35.4 38.2C39.1 37.7 38.7 31.1 34.7 31.6Z" fill="#005E5D"/>
<path d="M47 31.6C47.1139 31.8875 47.1814 32.1913 47.2 32.5C47.1871 33.0264 46.9722 33.5276 46.5999 33.8999C46.2276 34.2722 45.7264 34.4871 45.2 34.5C44.9 34.5 44.7 34.4 44.5 34.4C44.4 36.2 45.6 38.2 47.6 38C51 37.5 50.7 31.3 47 31.6Z" fill="#005E5D"/>
</svg>
