<svg width="72" height="72" viewBox="0 0 72 72" fill="none" xmlns="http://www.w3.org/2000/svg">
<path opacity="0.08" d="M44.3 21.518C37.4004 16.9151 28.4886 16.619 21.2987 20.7536C14.1087 24.8882 9.8822 32.7395 10.39 41.018C10.6138 44.1863 11.5359 47.2659 13.09 50.036L6.616 64.318L21.806 58.578C28.7854 62.3056 37.2352 61.9666 43.8937 57.692C50.5521 53.4174 54.3778 45.8757 53.894 37.978C53.4393 31.2949 49.891 25.2072 44.3 21.518Z" fill="black"/>
<path d="M9 59.663L16.445 45.87C15.0893 42.9981 14.3855 39.8618 14.384 36.686C14.4552 28.3924 19.2193 20.8552 26.6802 17.2324C34.1411 13.6097 43.0104 14.527 49.572 19.6C54.893 23.6686 58.01 29.9877 58 36.686C57.9327 44.5987 53.5905 51.8561 46.6499 55.6565C39.7092 59.4568 31.2558 59.2057 24.553 55L9 59.663Z" fill="url(#paint0_linear_117_16973)"/>
<path d="M47.783 21.665L15.883 53.565L15.431 54.41L25.165 51.469C33.4013 57.5018 44.9532 55.8182 51.125 47.6855C57.2968 39.5529 55.8096 27.9741 47.783 21.665Z" fill="url(#paint1_linear_117_16973)"/>
<path d="M36.3 17.725C29.624 17.7231 23.4529 21.279 20.1066 27.0558C16.7603 32.8326 16.746 39.9548 20.069 45.745L15.88 53.567L47.78 21.667C44.5009 19.1079 40.4595 17.7202 36.3 17.725Z" fill="url(#paint2_linear_117_16973)"/>
<path opacity="0.16" d="M36.3 17.725C29.624 17.7231 23.4529 21.279 20.1066 27.0558C16.7603 32.8326 16.746 39.9548 20.069 45.745L15.88 53.567L47.78 21.667C44.5009 19.1079 40.4595 17.7202 36.3 17.725Z" fill="#009286"/>
<path d="M27.273 26.373C28.096 25.55 30.573 25.413 30.596 25.848C30.619 26.283 32.832 31.113 32.852 31.548C32.872 31.983 31.39 33.468 30.952 33.903C30.514 34.338 33.852 38.103 33.913 38.173C33.974 38.243 37.744 41.573 38.173 41.141C38.602 40.709 40.088 39.222 40.522 39.241C40.956 39.26 45.774 41.483 46.209 41.502C46.644 41.521 46.509 44.009 45.684 44.833C44.984 45.533 41.345 48.093 35.021 43.533C33.7584 42.6726 32.5982 41.6708 31.563 40.547C30.4421 39.5087 29.443 38.3462 28.585 37.082C24.022 30.723 26.571 27.077 27.273 26.373Z" fill="#FFD200"/>
<defs>
<linearGradient id="paint0_linear_117_16973" x1="48.496" y1="6.00747" x2="24.601" y2="78.1128" gradientUnits="userSpaceOnUse">
<stop stop-color="#009796"/>
<stop offset="1" stop-color="#005E5D"/>
</linearGradient>
<linearGradient id="paint1_linear_117_16973" x1="51.7432" y1="26.4526" x2="24.2777" y2="70.2376" gradientUnits="userSpaceOnUse">
<stop stop-color="#00C5BC"/>
<stop offset="1" stop-color="#009286"/>
</linearGradient>
<linearGradient id="paint2_linear_117_16973" x1="38.4253" y1="14.4512" x2="5.9504" y2="66.2228" gradientUnits="userSpaceOnUse">
<stop stop-color="#00C5BC"/>
<stop offset="1" stop-color="#009286"/>
</linearGradient>
</defs>
</svg>
