<svg width="72" height="72" viewBox="0 0 72 72" fill="none" xmlns="http://www.w3.org/2000/svg">
<path opacity="0.08" d="M51.1 15.7001C46.1 11.4001 38.5 11.9001 34.2 16.9001C32.3 19.0001 31.4 21.6001 31.3 24.3001C31 24.4001 30.8 24.6001 30.7 24.9001L29.6 27.9001C29.6 28.0001 29.5 28.2001 29.6 28.3001L27.4 30.8001L13.6 49.5001C13.3 49.9001 13.4 50.5001 13.8 50.8001L13.9 50.9001L12.6 52.4001C11.9 53.2001 12 54.5001 12.8 55.2001L13.9 56.1001C13.3 56.8001 12.8 57.6001 12.4 58.4001C11.9 59.6001 11.6 60.8001 11.2 62.0001C10.3 64.4001 7.8 65.2001 5.7 65.9001C3.9 66.5001 4.7 69.3001 6.5 68.7001C9.1 67.8001 11.9 66.6001 13.4 64.0001C14.1 62.8001 14.3 61.5001 14.7 60.2001C15 59.4001 15.4 58.7001 16 58.0001L17.3 59.1001C18.1 59.8001 19.4 59.7001 20.1 58.9001L21.4 57.4001L21.5 57.5001C21.9 57.8001 22.5 57.8001 22.9 57.5001L39.5 41.3001L41.7 38.8001C41.8 38.8001 42 38.8001 42.1 38.7001L45 37.2001C45.3 37.0001 45.5 36.8001 45.5 36.5001C48.1 36.0001 50.5 34.7 52.4 32.6C56.6 27.6 56.1 20.0001 51.1 15.7001Z" fill="black"/>
<path d="M17.8 51C16.7 51.9 15.8 53 15.1 54.2C14.5 55.3 14.2 56.5 13.7 57.7C12.7 60 10.1 60.7 7.9 61.2C6 61.7 6.7 64.5 8.5 64C11.2 63.3 14.1 62.3 15.7 59.8C16.5 58.6 16.7 57.3 17.3 56.1C17.9 54.9 18.7 53.8 19.8 53C20.4 52.5 20.4 51.4 19.9 50.9C19.3 50.4 18.5 50.5 17.8 51Z" fill="url(#paint0_linear_123_17120)"/>
<path d="M22.8 55.3L24.9 53.2L17.8 46.1L15.7 48.2C14.9 49 14.9 50.2 15.7 51L19.9 55.2C20.8 56 22 56 22.8 55.3Z" fill="url(#paint1_linear_123_17120)"/>
<path d="M57 25.4L45.8 36.5L43.3 39L32 27.7L34.4 25.3L45.6 14L57 25.4Z" fill="#FFD100"/>
<path d="M48.3 34.7C54.9274 34.7 60.3 29.3274 60.3 22.7C60.3 16.0725 54.9274 10.7 48.3 10.7C41.6726 10.7 36.3 16.0725 36.3 22.7C36.3 29.3274 41.6726 34.7 48.3 34.7Z" fill="url(#paint2_linear_123_17120)"/>
<path d="M45 36.4L34.6 26C34.3 25.7 34.2 25.3 34.4 24.9L35.7 21.9C36 21.3 36.8 21.1 37.3 21.6L49.4 33.7C49.9 34.2 49.7 35 49.1 35.3L46.1 36.6C45.7 36.8 45.2 36.7 45 36.4Z" fill="url(#paint3_linear_123_17120)"/>
<path d="M25.6 54L43.3 39L32 27.7L17 45.4C16.7 45.8 16.7 46.3999 17.1 46.7999L24.3 54C24.6 54.3 25.2 54.3 25.6 54Z" fill="url(#paint4_linear_123_17120)"/>
<defs>
<linearGradient id="paint0_linear_123_17120" x1="48.7444" y1="48.9647" x2="5.22773" y2="59.3258" gradientUnits="userSpaceOnUse">
<stop stop-color="#009796"/>
<stop offset="1" stop-color="#005E5D"/>
</linearGradient>
<linearGradient id="paint1_linear_123_17120" x1="21.3545" y1="41.7701" x2="18.7443" y2="60.6614" gradientUnits="userSpaceOnUse">
<stop stop-color="#00C5BC"/>
<stop offset="1" stop-color="#009286"/>
</linearGradient>
<linearGradient id="paint2_linear_123_17120" x1="67.0206" y1="17.749" x2="49.9471" y2="22.2916" gradientUnits="userSpaceOnUse">
<stop stop-color="#009796"/>
<stop offset="1" stop-color="#005E5D"/>
</linearGradient>
<linearGradient id="paint3_linear_123_17120" x1="44.0119" y1="15.1456" x2="40.0614" y2="43.7362" gradientUnits="userSpaceOnUse">
<stop stop-color="#00C5BC"/>
<stop offset="1" stop-color="#009286"/>
</linearGradient>
<linearGradient id="paint4_linear_123_17120" x1="99.232" y1="18.3501" x2="25.8019" y2="41.8278" gradientUnits="userSpaceOnUse">
<stop stop-color="#00C5BC"/>
<stop offset="1" stop-color="#009286"/>
</linearGradient>
</defs>
</svg>
