<svg width="72" height="72" viewBox="0 0 72 72" fill="none" xmlns="http://www.w3.org/2000/svg">
<g clip-path="url(#clip0_123_17057)">
<path opacity="0.08" d="M50 21C40.6 11.6 25.4 11.6 16.1 21C16 21.1 15.9 21.2 15.9 21.2C15.9 21.2 15.9 21.2 15.8 21.3C15.6 21.5 15.4 21.7 15.2 22C15.3 21.9 15.3 21.8 15.4 21.7C6.7 31.1 6.9 45.8 16 55C25.1 64.1 39.8 64.4 49.2 55.7C49.1 55.8 49 55.8 48.9 55.9C49.1 55.7 49.4 55.5999 49.6 55.2999C49.6 55.2999 49.6 55.3 49.7 55.2C49.8 55.1 49.9 55 49.9 55C59.3 45.6 59.3 30.4 50 21ZM23.4 47.5999C22.8 46.9999 22.3 46.3999 21.7 45.7999C22.3 46.3999 22.9 46.9999 23.4 47.5999C24 48.1999 24.6 48.6999 25.2 49.2999C24.6 48.6999 24 48.0999 23.4 47.5999ZM13.4 28.1C13.4 28.3 13.4 28.5999 13.4 28.7999C13.4 28.4999 13.4 28.3 13.4 28.1ZM14.8 34.7999C14.9 35.0999 15 35.4 15.2 35.7C15.1 35.4 14.9 35.0999 14.8 34.7999ZM15.6 36.5999C15.6 36.6999 15.7 36.8 15.7 36.9C15.7 36.8 15.6 36.6999 15.6 36.5999ZM14.2 33.0999C14.3 33.3999 14.4 33.7 14.5 33.9C14.4 33.6 14.3 33.2999 14.2 33.0999ZM16 37.5C16.1 37.6 16.1 37.6 16 37.5C16.1 37.6 16.1 37.6 16 37.5ZM13.4 27.2C13.4 27 13.4 26.8 13.4 26.6C13.4 26.7 13.4 27 13.4 27.2ZM13.6 25.7C13.6 25.5 13.7 25.3 13.7 25.1C13.6 25.3 13.6 25.5 13.6 25.7ZM13.9 24.4C14 24.2 14 24 14.1 23.9C14 24 14 24.2 13.9 24.4ZM14 32.0999C13.9 31.7999 13.9 31.5999 13.8 31.2999C13.8 31.5999 13.9 31.7999 14 32.0999ZM13.6 30.4C13.6 30.2 13.5 29.9 13.5 29.7C13.5 29.9 13.6 30.1 13.6 30.4ZM16.5 38.5C16.7 38.8 16.9 39.1 17.1 39.5C16.9 39.1 16.7 38.8 16.5 38.5ZM18.3 41.2999C18.1 40.9999 17.8 40.5999 17.6 40.2999C17.8 40.6999 18.1 40.9999 18.3 41.2999ZM19.7 43.2999C19.4 42.8999 19.1 42.6 18.9 42.2C19.1 42.5 19.4 42.8999 19.7 43.2999ZM36 56.0999C35.7 55.9999 35.5 55.8999 35.3 55.7999C35.5 55.8999 35.8 55.9999 36 56.0999ZM32.5 54.5C32.2 54.3 31.9 54.1 31.5 53.9C31.9 54.1 32.2 54.3 32.5 54.5ZM30.7 53.4C30.4 53.2 30 53 29.7 52.7C30 52.9 30.3 53.2 30.7 53.4ZM28.8 52.0999C28.4 51.7999 28.1 51.5999 27.7 51.2999C28.1 51.5999 28.5 51.8999 28.8 52.0999ZM27 50.7999C26.6 50.4999 26.2 50.0999 25.8 49.7999C26.2 50.0999 26.6 50.3999 27 50.7999ZM33.8 55.0999C34 55.1999 34.2 55.3 34.4 55.4C34.2 55.3 34 55.1999 33.8 55.0999ZM36 56.0999C36 56.0999 36.1 56.1 36.1 56.2C36.1 56.2 36.1 56.0999 36 56.0999ZM39.7 57.2C39.4 57.1 39.2 57.1 38.9 57C39.2 57.1 39.4 57.2 39.7 57.2ZM37.9 56.7999C37.6 56.6999 37.3 56.6 37.1 56.5C37.4 56.6 37.7 56.6999 37.9 56.7999ZM41.3 57.5C41.1 57.5 40.8 57.4 40.6 57.4C40.9 57.4 41.1 57.5 41.3 57.5ZM44.5 57.5999C44.3 57.5999 44.1 57.5999 43.9 57.5999C44 57.5999 44.3 57.5999 44.5 57.5999ZM21.2 45.2C20.9 44.8 20.5 44.4 20.2 44C20.6 44.4 20.9 44.8 21.2 45.2ZM14.4 23.1C14.5 22.9 14.6 22.8 14.7 22.6C14.6 22.8 14.5 23 14.4 23.1ZM42.3 57.5999C42.5 57.5999 42.8 57.5999 43 57.5999C42.7 57.5999 42.5 57.5999 42.3 57.5999ZM47.9 56.5999C48.1 56.4999 48.2 56.3999 48.4 56.2999C48.2 56.3999 48.1 56.4999 47.9 56.5999ZM45.3 57.4C45.5 57.4 45.7 57.2999 45.9 57.2999C45.7 57.3999 45.5 57.4 45.3 57.4ZM46.6 57.0999C46.8 56.9999 47 57 47.1 56.9C47 57 46.8 56.9999 46.6 57.0999Z" fill="black"/>
<path d="M60 36C60 36.4 60 36.8 60 37.2C60 37.5 60 37.8 59.9 38.1C59.8 38.9 59.7 39.6 59.6 40.4C59.3 42.3 58.7 44 58 45.7C57.9 45.9 57.8 46.1 57.7 46.4C57.7 46.4 57.7 46.5 57.6 46.5C57.4 46.9 57.2 47.2 57 47.6C56.5 48.5 55.9 49.4 55.3 50.3C55.1 50.6 54.8 50.9 54.6 51.2C54.4 51.5 54.1 51.8 53.8 52.1C53.5 52.4 53.3 52.7 53 53C52.7 53.3 52.4 53.5 52.1 53.8C51.6 54.3 51.1 54.7 50.5 55.1C50.3 55.2 50.2 55.3 50.1 55.4C49.9 55.6 49.6 55.8 49.3 55.9C48.8 56.2 48.2 56.6 47.7 56.9C44.2 58.9 40.2 60 35.9 60C33.6 60 31.4 59.7 29.4 59.1C29.1 59 28.8 58.9 28.6 58.9C28.2 58.8 27.8 58.6 27.4 58.5C27.2 58.4 26.9 58.3 26.7 58.2C26.4 58.1 26.1 57.9 25.8 57.8C24.8 57.3 23.9 56.8 23 56.2C17.8 52.9 14.1 47.6 12.7 41.4V41.3C12.7 41.1 12.6 40.8 12.6 40.6C12.6 40.4 12.5 40.1 12.5 39.9C12.5 39.6 12.4 39.2 12.4 38.8C12.3 38.4 12.3 37.9 12.3 37.5C12.3 37 12.3 36.6 12.3 36.2C12.3 35.8 12.3 35.4 12.3 35V34.9C12.3 34.7 12.3 34.4 12.4 34.2C12.4 34.2 12.4 34.1 12.4 34C12.4 33.8 12.4 33.6 12.5 33.5C12.6 32.8 12.7 32.1 12.8 31.4C12.9 31 13 30.6 13.1 30.2C13.2 29.9 13.3 29.5 13.4 29.2C13.5 29 13.5 28.8 13.6 28.6C13.8 28 14 27.4 14.3 26.9C14.4 26.5 14.6 26.2 14.8 25.8C14.9 25.5 15.1 25.3 15.2 25C15.3 24.9 15.3 24.8 15.4 24.7C15.5 24.4 15.7 24.2 15.8 23.9C15.8 23.8 15.9 23.7 16 23.7C16.1 23.4 16.3 23.2 16.5 22.9C16.7 22.6 16.9 22.3 17.1 22C17.4 21.7 17.6 21.3 17.9 21C18.2 20.7 18.5 20.3 18.8 20C19.1 19.7 19.4 19.3 19.7 19C20 18.7 20.3 18.4 20.7 18.1C21 17.8 21.3 17.6 21.6 17.3C21.6 17.3 21.6 17.3 21.7 17.2C22 17 22.3 16.8 22.6 16.6C22.8 16.5 22.9 16.4 23 16.3C23.1 16.3 23.1 16.2 23.2 16.2C24.1 15.6 25 15.1 25.9 14.7C27.4 14 29.1 13.4 30.8 13C31 12.9 31.3 12.9 31.6 12.8C31.8 12.8 31.9 12.7 32.1 12.7C32.4 12.6 32.6 12.6 32.9 12.6C33.2 12.5 33.5 12.5 33.8 12.5C34.1 12.5 34.3 12.4 34.6 12.4C34.8 12.4 35 12.4 35.3 12.4C35.7 12.4 36 12.4 36.4 12.4C36.8 12.4 37.1 12.4 37.5 12.4H37.6C37.7 12.4 37.9 12.4 38 12.4H38.1C38.4 12.4 38.7 12.4 39 12.5C39.3 12.5 39.6 12.6 39.9 12.6C40 12.6 40.1 12.6 40.2 12.6C44.2 13.2 47.9 14.9 51 17.3C51.3 17.5 51.5 17.7 51.8 17.9C52.2 18.2 52.5 18.5 52.8 18.8C53.1 19.1 53.5 19.5 53.8 19.8C54.1 20.1 54.4 20.4 54.7 20.8C54.8 20.9 54.9 21 55 21.1C55.2 21.4 55.4 21.6 55.6 21.9C55.7 22 55.8 22.2 55.9 22.3C56 22.5 56.2 22.6 56.3 22.8C56.6 23.2 56.8 23.6 57.1 24C57.2 24.1 57.3 24.3 57.4 24.4C57.9 25.3 58.4 26.3 58.8 27.3C58.9 27.6 59 27.9 59.1 28.2C59.1 28.3 59.2 28.4 59.2 28.6C59.2 28.7 59.3 28.8 59.3 28.9C59.5 29.4 59.6 30 59.8 30.5C60 31.2 60.1 31.9 60.2 32.6C60.3 32.9 60.3 33.2 60.3 33.5C60.4 34 60.4 34.5 60.4 35C60 35.2 60 35.6 60 36Z" fill="url(#paint0_linear_123_17057)"/>
<g opacity="0.18">
<path opacity="0.18" d="M26.4 45.5999C17.3 36.4999 13.7 25.0999 18.3 19.7999C9.7 29.0999 9.9 43.7999 19 52.9999C28.1 62.0999 42.8 62.3999 52.2 53.6999C47 58.1999 35.6 54.6999 26.4 45.5999Z" fill="black"/>
</g>
<path opacity="0.06" d="M44.9 27.0999C54.3 36.4999 57.7 48.1999 52.6 53.2999L18.7 19.2999C23.8 14.1999 35.6 17.6999 44.9 27.0999Z" fill="black"/>
<path opacity="0.12" d="M26.4 45.5999C35.8 54.9999 47.5 58.3999 52.6 53.2999L18.7 19.2999C13.6 24.4999 17.1 36.1999 26.4 45.5999Z" fill="black"/>
<path d="M17.9 28.6C18 28.5 18.1 28.5 18.1 28.4C18.2 28.4 18.3 28.3 18.3 28.3C18.3 28.4 18.2 28.4 18.2 28.5C18.3 28.6 18.5 28.7 18.6 28.7C18.8 28.7 18.9 28.6 19.1 28.5C19.2 28.6 19.3 28.7 19.4 28.8C19.1 28.9 18.8 28.9 18.5 29C18.4 29 18.2 29.2 18.2 29.3C18.3 29.6 18.1 29.7 18 29.9C18 30.3 18 30.5 18 30.8C18 30.8 18 30.9 18.1 30.9C18.1 30.9 18.2 30.9 18.2 30.8C18.3 30.6 18.5 30.4 18.5 30.1C18.5 29.8 18.6 29.6 18.8 29.4C18.9 29.3 19 29.2 19.1 29.1C19.2 29.1 19.2 29 19.3 29C19.4 29.1 19.5 29.1 19.5 29.2C19.5 29.4 19.5 29.6 19.5 29.8C19.8 29.7 19.6 30.1 19.8 30.1C19.8 30 19.9 29.9 19.9 29.9C20 29.4 20.1 29.4 20.5 29.5C20.6 29.4 20.6 29.4 20.7 29.3C20.7 29.2 20.7 29.1 20.6 29.1C20.5 29 20.4 28.9 20.3 28.8C20.1 28.7 19.9 28.8 19.6 28.7C19.4 28.7 19.3 28.6 19.2 28.4C19.2 28.2 19.2 28.1 19.1 27.9C19.1 27.9 19.1 27.9 19 27.9C19.1 28 19 27.9 19 27.8C18.9 27.6 18.8 27.5 18.6 27.7C18.2 28 17.8 28.3 17.4 28.6C17.4 28.6 17.4 28.7 17.3 28.7C17.5 28.8 17.7 28.8 17.9 28.6Z" fill="url(#paint1_linear_123_17057)"/>
<path d="M19.2 38C19.3 37.8 19.4 37.5 19.4 37.3C19.5 37.5 19.4 37.7 19.2 38Z" fill="url(#paint2_linear_123_17057)"/>
<path d="M52.5 22.1C52.5 22 52.4 22 52.5 22.1C52.4 22.1 52.4 22.1 52.3 22.2L52.2 22.3C52.2 22.3 52.2 22.3 52.2 22.4C52.2 22.4 52.2 22.4 52.3 22.5C52.3 22.4 52.4 22.4 52.4 22.4C52.4 22.3 52.5 22.3 52.5 22.2C52.5 22.1 52.5 22.1 52.5 22.1ZM53.8 21.5C53.7 21.5 53.6 21.4 53.6 21.4C53.5 21.4 53.4 21.5 53.4 21.6C53.4 21.7 53.5 21.7 53.5 21.7C53.5 21.7 53.6 21.7 53.6 21.6C53.7 21.7 53.8 21.6 53.8 21.5C53.8 21.6 53.8 21.6 53.8 21.5Z" fill="url(#paint3_linear_123_17057)"/>
<path d="M60 34.8C60 34.3 59.9 33.8 59.9 33.3C59.9 33 59.8 32.7001 59.8 32.4001C59.7 31.7001 59.6 31 59.4 30.3C59.3 30.3 59.3 30.3001 59.2 30.2001L59.1 30.1C58.6 29.9 58.2 29.9001 57.8 30.2001C57.7 30.3001 57.5 30.3 57.4 30.3C57.2 30.3 57 30.4001 56.8 30.2001C56.6 30.0001 56.4 29.8 56.6 29.5C56.7 29.4 56.7 29.2 56.8 29.1C57 28.7 57.1 28.3 57.4 28C57.5 27.9 57.6 27.9 57.8 28C57.9 28.1 58 28.2 58.2 28.1C58.3 28.1 58.4 28.1001 58.5 28.2001C58.4 28.3001 58.3 28.4 58.1 28.5C58.4 28.5 58.5 28.7 58.5 29C58.7 28.9 58.9 28.8001 59.1 28.7001C59.1 28.6001 59 28.5 59 28.4C58.9 28.4 58.8 28.2 58.6 28C58.7 28 58.8 28 58.8 28C58.7 27.7 58.6 27.4 58.5 27.1C58.1 26.1 57.6 25.1001 57.1 24.2001C57 24.1001 56.9 23.9 56.8 23.8C56.6 23.4 56.3 23 56 22.6C55.9 22.4 55.8 22.2 55.6 22.1C55.5 22 55.4 21.8001 55.3 21.7001C55.1 21.4001 54.9 21.2 54.7 20.9C54.6 20.9 54.5 21 54.4 21C54.3 21 54.3 21.3 54.4 21.4C54.4 21.6 54.5 21.8 54.5 22C54.5 22.1 54.5 22.2001 54.4 22.2001C54.4 22.2001 54.3 22.2001 54.2 22.2001C54 22.1001 54 22 53.8 21.8C53.7 21.8 53.7 21.9 53.6 22C53.5 22.3 53.4 22.6 53.5 22.9C53.5 23 53.5 23.1 53.4 23.1C53.3 23.2 53.2 23.3 53.2 23.4C53.2 23.6 53 23.7 52.9 23.5C52.7 23.3 52.6 23.4 52.4 23.5C52.3 23.5 52.2 23.5 52.2 23.6C52 23.7 51.8 23.7001 51.5 23.7001C51.3 23.7001 51.2 23.6 51 23.6C50.9 23.6 50.8 23.6 50.8 23.6C50.6 23.8 50.4 23.8001 50.2 23.7001C50.1 23.7001 50.1 23.5 50.1 23.4C50.1 23.4 50.2 23.3001 50.3 23.2001C50.2 23.5001 50.5 23.5 50.6 23.5C50.7 23.5 50.8 23.4 51 23.3C51 23.3 51 23.3001 51 23.2001C51 23.2001 50.9 23.1 50.8 23.1C50.8 23 50.9 22.9 50.9 22.9C51 22.9 51.1 22.9 51.2 22.9C51.3 22.9 51.4 22.8001 51.4 22.7001C51.4 22.7001 51.4 22.6 51.5 22.6C51.6 22.5 51.6 22.5 51.7 22.4C51.8 22.4 51.9 22.4 51.9 22.4C52.2 22.4 52.2 22.3 52.1 22C52.1 22 52.1 21.9 52.1 21.8C52.1 21.7 52.1 21.5 52.1 21.4C52.1 21.2 52.1 21 52.4 20.9C52.7 20.9 52.8 20.4001 52.6 20.2001C52.5 20.1001 52.3 20 52.2 19.9C52.2 19.9 52.1 19.9 52.1 19.8C52.1 19.5 52 19.1 52 18.8C52.1 18.6 52.2 18.4 52.3 18.3C52 18 51.6 17.7 51.3 17.4C51.1 17.2 50.8 17 50.5 16.8C50.5 16.8 50.5 16.8 50.5 16.9C50.5 16.9 50.5 16.9 50.4 16.9C50.1 17.3 49.8 17.6 49.5 18C49.4 18.1 49.3 18.1 49.2 18.1C49.1 18.1 49.1 18.1 49 18.1C49.2 18.4 49.1 18.5 48.8 18.5C48.7 18.6 48.7 18.7001 48.6 18.7001C48.6 18.7001 48.5 18.8 48.5 18.9L48.4 19C48.3 19 48.2 19.0001 48.2 19.2001C48.2 19.3001 48.2 19.4 48.2 19.5C48.2 19.6 48.2 19.8 48.3 19.9C48.4 20 48.5 20.2 48.5 20.3C48.6 20.3 48.5 20.3 48.5 20.4C48.3 20.6 48.3 20.6001 48.5 20.7001C48.6 20.7001 48.6 20.8 48.6 20.9C48.5 21.1 48.6 21.2 48.8 21.3C49 21.4 49.3 21.4001 49.5 21.2001C49.7 21.1001 49.9 21 50.1 20.9C50.2 20.9 50.2 20.8 50.3 20.8C50.3 21 50.4 21.1001 50.4 21.2001C50.4 21.3001 50.4 21.4 50.5 21.4L50.6 21.5C50.7 21.6 50.8 21.8 50.9 21.9C50.9 22 50.9 22.1001 50.9 22.2001C50.7 22.3001 50.5 22.4 50.4 22.6C50.4 22.6 50.3 22.6 50.2 22.6C50.2 22.5 50.3 22.4 50.3 22.4C50.3 22.3 50.4 22.2001 50.3 22.2001C50.1 22.1001 50.2 21.9001 50.2 21.7001C50.2 21.6001 50.2 21.5 50.2 21.3C50.1 21.4 50 21.4 49.9 21.4C49.8 21.5 49.7 21.6 49.6 21.6C49.5 21.7 49.4 21.7 49.4 21.9C49.5 21.9 49.5 21.9 49.6 21.9C49.3 22 49.3 22 49.4 22.3C49.5 22.6 49.6 22.8 49.7 23.1C49.7 23.3 49.7 23.5 49.6 23.6C49.4 23.8 49 23.8 48.8 23.6C48.8 23.7 48.7 23.8 48.7 23.8C48.5 23.9 48.4 24.1 48.4 24.3C48.4 24.4 48.3 24.4 48.3 24.4C48.1 24.5 47.9 24.6 47.7 24.6C47.6 24.6 47.5 24.7 47.5 24.9C47.5 25 47.5 25.2001 47.3 25.2001C47.2 25.2001 47.2 25.3 47.1 25.4C47 25.4 46.8 25.4 46.7 25.4C46.6 25.4 46.6 25.4 46.5 25.3C46.5 25.4 46.5 25.5 46.5 25.5C46.5 25.6 46.5 25.8 46.5 25.8C46.4 25.8 46.2 25.9 46.1 25.9C45.7 25.8 45.5 25.9 45.6 26.3C45.9 26.5 46.3 26.6 46.4 27C46.4 27.1 46.5 27.1001 46.5 27.2001C46.8 27.3001 46.8 27.6 46.8 27.9C46.8 28 46.8 28.2 46.8 28.3C46.8 28.6 46.6 28.7 46.3 28.6C46.2 28.6 46 28.5 45.9 28.5C45.8 28.5 45.6 28.4 45.5 28.4C45.1 28.4 44.6 28.2 44.2 28.5C44.1 28.6 44 28.7 44.1 28.8C44.3 29.3 44.3 29.8001 44.1 30.2001C44 30.4001 44 30.6 44.1 30.9C44.2 31 44.2 31.1 44.1 31.3C44.1 31.5 44.1 31.5 44.3 31.5C44.4 31.5 44.5 31.5 44.7 31.5C44.9 31.5 45 31.5001 45.1 31.7001C45.2 31.9001 45.3 31.9 45.5 31.9C45.7 31.8 45.9 31.8 46.1 31.8C46.2 31.8 46.3 31.8001 46.4 31.7001C46.6 31.6001 46.8 31.4 46.9 31.3L47 31.2001C47.1 31.1001 47.1 31 47.2 30.9C47.3 30.8 47.4 30.7 47.3 30.5C47.3 30.5 47.3 30.4 47.3 30.3C47.5 29.9 47.8 29.6 48.2 29.4C48.4 29.3 48.4 29.2 48.4 29C48.3 28.8 48.4 28.7 48.6 28.6C48.8 28.5 48.9 28.6 49.1 28.6C49.2 28.6 49.4 28.7 49.5 28.6C49.7 28.5 49.9 28.4001 50.1 28.2001C50.2 28.1001 50.3 28.1001 50.5 28.2001C50.8 28.4001 50.8 28.6 51 28.9C51.2 29.3 51.4 29.6001 51.9 29.7001C52 29.7001 52.1 29.8 52.1 29.9C52.3 30.1 52.4 30.2 52.6 30.4C52.7 30.5 52.8 30.9 52.7 31.1C52.7 31.1 52.6 31.2001 52.5 31.2001C52.3 31.2001 52.1 31.2001 51.8 31.2001C51.7 31.2001 51.6 31.2 51.6 31.3C51.6 31.4 51.7 31.5 51.7 31.5C51.9 31.6 52 31.7 52.2 31.8C52.3 31.8 52.5 31.8 52.5 31.8C52.6 31.6 52.7 31.4 52.9 31.3C53 31.3 53.1 31.1 53.1 31C53.1 30.9 53.2 30.7 53.1 30.6C53.1 30.5 52.9 30.4 53 30.3C53 30.3 53.2 30.3 53.3 30.4C53.4 30.4 53.4 30.4 53.5 30.4C53.5 30.3 53.5 30.2001 53.5 30.2001L53.4 30.1C53.2 29.9 52.9 29.8 52.8 29.5H52.7C52.4 29.5 52.3 29.2 52.1 29C51.9 28.8 51.8 28.6 51.6 28.4C51.5 28.3 51.4 28.2 51.5 28C51.5 27.9 51.5 27.9 51.6 27.8C51.6 27.7 51.7 27.7 51.7 27.6C51.8 27.6 51.8 27.7 51.9 27.8C51.9 27.9 52 28 52 28.1C52.1 28 52.2 28 52.2 28C52.4 28.2 52.5 28.5001 52.7 28.7001C52.8 28.8001 52.9 28.8 53 28.8C53.3 29 53.5 29.2 53.8 29.4C54 29.5 54.1 29.6 54 29.8C53.9 30.2 54.2 30.5 54.4 30.8C54.6 31.1 54.7 31.4 54.8 31.8C54.8 32 54.9 32 55 32C55.1 32 55.2 32 55.3 31.9C55.5 31.8 55.7 31.6 55.9 31.5C55.9 31.5 55.8 31.3 55.7 31.3C55.5 31.2 55.4 31 55.3 30.8C55.2 30.7 55.3 30.6 55.4 30.6C55.6 30.6 55.7 30.5 55.6 30.3C55.8 30.3 55.9 30.3 56.1 30.3C56.2 30.3 56.2 30.4 56.2 30.4C56.2 30.5 56.3 30.7 56.3 30.8C56.3 31 56.2 31.2001 56.5 31.2001C56.4 31.4001 56.3 31.5 56.5 31.6V31.7001C56.5 31.8001 56.5 31.9 56.6 32C56.6 32.1 56.7 32.1 56.8 32.1C57 32.2 57.1 32.3001 57.2 32.4001C57.4 32.6001 57.4 32.6001 57.6 32.4001C57.7 32.3001 57.8 32.2 58 32.3C58.3 32.5 58.6 32.6001 58.9 32.4001H59C59.1 32.4001 59.1 32.3001 59.2 32.2001C59.2 32.3001 59.3 32.3001 59.3 32.4001C59.3 32.6001 59.4 32.8 59.4 33C59.4 33.2 59.3 33.3 59.3 33.5C59.2 33.7 59.2 34.0001 59.1 34.2001C59 34.4001 58.9 34.6 58.6 34.5C58.4 34.5 58.3 34.4001 58.1 34.4001C58 34.4001 57.9 34.4001 57.9 34.4001C57.6 34.4001 57.4 34.5 57.1 34.5C56.6 34.4 56.2 34.4 55.7 34.1C55.5 34 55.3 34.0001 55.2 33.9001C54.9 33.7001 54.5 33.6 54.2 33.8C54 34 53.9 34.0001 54 34.2001C54 34.3001 54.1 34.4 54 34.5C53.9 34.6 53.8 34.7001 53.7 34.7001C53.2 34.6001 52.7 34.5 52.4 34.1C52.2 33.9 52 33.7001 51.8 33.7001C51.5 33.7001 51.3 33.5 51 33.3C50.8 33.1 50.8 33.1 50.9 32.8C51 32.6 51.1 32.4001 50.9 32.2001C50.9 32.2001 50.9 32.1 50.9 32C50.9 31.9 51.1 31.8001 51 31.7001C51 31.6001 50.8 31.6 50.8 31.5C50.7 31.4 50.5 31.4 50.4 31.5C50.3 31.5 50.2 31.5 50.2 31.5C49.8 31.5 49.5 31.5 49.1 31.5C48.7 31.5 48.3 31.5 47.9 31.6H47.8C47.4 31.8 47.1 32.0001 46.7 32.2001C46.6 32.2001 46.6 32.2001 46.5 32.2001C46.3 32.2001 46 32.2001 45.8 32.2001C45.7 32.2001 45.6 32.2 45.6 32.1C45.4 31.9 45.3 31.9001 45.2 32.2001C45.2 32.3001 45.1 32.3001 45.1 32.4001C45 32.8001 44.8 33 44.4 33.1C44.1 33.2 43.7 34 43.8 34.3C43.9 34.5 43.8 34.7 43.7 34.8C43.5 35.1 43.3 35.3 43 35.5C42.8 35.6 42.6 35.7001 42.5 35.9001C42.2 36.2001 42 36.7 41.8 37.1C41.8 37.2 41.7 37.2 41.6 37.3C41.5 37.5 41.4 37.8 41.2 38.1C41.1 38.3 41.1 38.5001 41.1 38.7001C41.2 38.9001 41.2 39.1001 41.2 39.2001C41.2 39.3001 41.2 39.4 41.2 39.5C41.3 40.1 41.2 40.6 40.9 41.1C40.9 41.2 40.8 41.3001 40.8 41.4001C40.8 41.6001 40.9 41.8 40.9 42C40.9 42.2 41 42.3001 41.1 42.4001C41.5 42.8001 41.7 43.2001 41.9 43.7001C42 44.0001 42.1 44.4 42.5 44.6L42.6 44.7001C42.7 44.8001 42.7 44.8001 42.8 44.9001C42.9 45.0001 43.1 45.1 43.2 45.3C43.5 45.6 43.9 45.7 44.2 45.5C44.4 45.3 44.7 45.3001 45 45.4001C45.2 45.5001 45.5 45.5001 45.7 45.4001C45.9 45.3001 46.2 45.3001 46.5 45.2001C46.8 45.1001 47.1 45.0001 47.4 44.9001C47.5 44.9001 47.6 44.8001 47.7 44.9001C47.9 45.0001 48.1 45.1 48.2 45.1C48.3 45.1 48.3 45.2 48.2 45.3C48.2 45.3 48.1 45.4 48.2 45.5C48.3 45.7 48.6 45.8 48.7 45.8C48.8 45.8 48.9 45.7001 49.1 45.7001C49.2 45.7001 49.2 45.7001 49.3 45.7001C49.2 45.8001 49.2 45.9 49.1 46C49.2 46 49.3 46.1 49.3 46.1C49.4 46.1 49.5 46.2001 49.5 46.2001C49.4 46.5001 49.4 46.7 49.3 47C49.2 47.3 49.1 47.5 49 47.8C49 47.9 48.9 47.9 49 48C49.1 48.2 49.2 48.5001 49.4 48.7001C49.7 49.0001 49.9 49.3001 50 49.7001C50 49.9001 50 50.1 50.1 50.3C50.2 50.6 50.2 51 50.1 51.3C50.1 51.5 50.1 51.6 50.1 51.8C50.1 52 50.1 52.2001 50.1 52.4001C49.9 52.8001 49.7 53.2 49.5 53.6C49.4 53.8 49.3 53.9 49.3 54.1C49.3 54.2 49.3 54.3 49.3 54.5C49.2 54.7 49.2 54.9 49.3 55C49.3 55.1 49.4 55.2001 49.4 55.2001C49.7 55.0001 49.9 54.8001 50.2 54.7001C50.3 54.6001 50.5 54.5001 50.6 54.4001C51.1 54.0001 51.7 53.5 52.2 53.1C52.5 52.8 52.8 52.6 53.1 52.3C53.4 52 53.6 51.7001 53.9 51.4001C54.2 51.1001 54.4 50.8 54.7 50.5C54.9 50.2 55.2 49.9 55.4 49.6C56 48.7 56.6 47.8001 57.1 46.9001C57.3 46.5001 57.5 46.2 57.7 45.8C57.7 45.8 57.7 45.7001 57.8 45.7001C57.9 45.5001 58 45.3 58.1 45C58.8 43.3 59.4 41.5001 59.7 39.7001C59.6 39.6001 59.6 39.5 59.6 39.3C59.7 39 59.7 38.6001 59.5 38.4001C59.2 38.1001 59.2 37.7 59.1 37.3C59 36.9 58.7 36.5 58.5 36C58.5 35.9 58.4 35.8001 58.4 35.7001C58.5 35.7001 58.6 35.8 58.7 35.8C58.9 35.7 59 35.8001 59.1 35.9001C59.2 36.0001 59.2 36.1 59.3 36.3C59.4 36.6 59.7 36.8001 59.7 37.2001C59.7 37.3001 59.8 37.3001 59.8 37.4001C59.8 37.4001 59.9 37.4 59.9 37.5C59.9 37.2 59.9 36.9 60 36.6C60 36.2 60 35.8001 60 35.4001C60 35.6001 60 35.2 60 34.8ZM53.5 19.5C53.5 19.8 53.6 20 53.9 20L54 20.1C53.9 20.3 53.9 20.3 54.1 20.4C54.2 20.4 54.3 20.4 54.4 20.4C54 20.2 53.8 19.8 53.5 19.5Z" fill="url(#paint4_linear_123_17057)"/>
<path d="M18.9 37.6C19 37.8 19.1 37.9 19.2 38C19.1 37.9 19 37.8 18.9 37.6Z" fill="url(#paint5_linear_123_17057)"/>
<path d="M18.8 37.5C18.8 37.4 18.7 37.3 18.7 37.3C18.8 37.3 18.8 37.4 18.8 37.5Z" fill="url(#paint6_linear_123_17057)"/>
<path d="M17.9 28.6001C18 28.5001 18.1 28.5001 18.1 28.4001C18.2 28.4001 18.3 28.3001 18.3 28.3001C18.3 28.4001 18.2 28.4001 18.2 28.5001C18.3 28.6001 18.5 28.7001 18.6 28.7001C18.8 28.7001 18.9 28.6001 19.1 28.5001C19.2 28.6001 19.3 28.7001 19.4 28.8001C19.1 28.9001 18.8 28.9001 18.5 29.0001C18.4 29.0001 18.2 29.2001 18.2 29.3001C18.3 29.6001 18.1 29.7001 18 29.9001C18 30.3001 18 30.5001 18 30.8001C18 30.8001 18 30.9001 18.1 30.9001C18.1 30.9001 18.2 30.9001 18.2 30.8001C18.3 30.6001 18.5 30.4001 18.5 30.1001C18.5 29.8001 18.6 29.6001 18.8 29.4001C18.9 29.3001 19 29.2001 19.1 29.1001C19.2 29.1001 19.2 29.0001 19.3 29.0001C19.4 29.1001 19.5 29.1001 19.5 29.2001C19.5 29.4001 19.5 29.6001 19.5 29.8001C19.8 29.7001 19.6 30.1001 19.8 30.1001C19.8 30.0001 19.9 29.9001 19.9 29.9001C20 29.4001 20.1 29.4001 20.5 29.5001C20.6 29.4001 20.6 29.4001 20.7 29.3001C20.7 29.2001 20.7 29.1001 20.6 29.1001C20.5 29.0001 20.4 28.9001 20.3 28.8001C20.1 28.7001 19.9 28.8001 19.6 28.7001C19.4 28.7001 19.3 28.6001 19.2 28.4001C19.2 28.2001 19.2 28.1001 19.1 27.9001C19.1 27.9001 19.1 27.9001 19 27.9001C19.1 28.0001 19 27.9001 19 27.8001C18.9 27.6001 18.8 27.5001 18.6 27.7001C18.2 28.0001 17.8 28.3001 17.4 28.6001C17.4 28.6001 17.4 28.7001 17.3 28.7001C17.5 28.8001 17.7 28.8001 17.9 28.6001Z" fill="url(#paint7_linear_123_17057)"/>
<path d="M34.5 50.7C34.5 50.3 34.3 50 34 49.8C33.8 49.9 33.7 49.9 33.5 49.7C33.3 49.5 33 49.3 32.6 49.1C32.3 49 32 48.9 31.7 48.9C31.6 48.9 31.5 48.9 31.4 48.9C31.3 49 31.2 48.9 31.2 48.8C31.2 48.7 31.2 48.6 31.2 48.6C31 48.5 30.9 48.3 30.7 48.2C30.5 48.1 30.2 48 29.9 48.2C29.9 47.8 29.6 47.8 29.4 47.7C29.4 47.5 29.4 47.3 29.4 47.1C29.4 47.1 29.4 47.1 29.4 47C29.2 46.9 29.2 46.7 29.1 46.5C29 46 28.7 45.7 28.3 45.5C28.2 45.5 28.1 45.5 28.1 45.4C27.9 45.2 27.8 45.3 27.6 45.3C27.4 45.3 27.2 45.2 27.1 45.2C27 45.2 26.9 45.1 26.8 45L26.7 44.9C26.5 44.7 26.3 44.5 26.1 44.4H25.9C25.9 44.3 25.9 44.1 25.8 44C25.8 43.9 25.7 43.9 25.6 43.9C25.5 43.9 25.5 43.9 25.4 43.8C25.4 43.8 25.4 43.8 25.4 43.7V43.6C25.4 43.6 25.3 43.6 25.2 43.6C25.1 43.6 25 43.6 24.9 43.7C24.7 43.7 24.4 43.9 24.3 43.8C24 43.6 23.5 43.8 23.3 43.4C23.2 43.3 23 43.3 22.9 43.2C22.9 43.2 22.8 43.2 22.7 43.2C22.8 43.4 22.6 43.4 22.5 43.4C22.4 43.4 22.4 43.4 22.3 43.4C22.3 43.3 22.3 43.3 22.4 43.2C22.5 43.1 22.5 43 22.4 43C22.3 42.9 22.2 42.9 22.1 43C22 43.1 21.9 43.1 21.8 43.2C21.6 43.3 21.3 43.4 21 43.5L20.9 43.6C20.7 43.9 20.6 44.2 20.4 44.5C20.2 44.3 20.1 44.2 19.9 44C19.8 43.8 19.6 43.8 19.4 43.9C19.3 44 19.2 44 19 44.1C18.9 44.2 18.6 44.1 18.5 43.9C18.4 43.8 18.3 43.7 18.2 43.5C18.1 43.3 18.1 43.2 18.1 43.1C18.1 42.8 18.2 42.6 18.3 42.3C18.3 42.1 18.4 41.8 18.4 41.8C18.2 41.7 18.1 41.4 17.8 41.4C17.6 41.4 17.4 41.4 17.1 41.5C16.8 41.6 16.7 41.4 16.7 41.1C16.7 40.9 16.7 40.8 16.8 40.6C16.9 40.5 16.9 40.5 16.9 40.4C17 40.1 17.1 39.8 17.2 39.5C17.3 39.3 17.2 39.2 17 39.2C16.9 39.2 16.8 39.2 16.8 39.3C16.5 39.4 16.1 39.6 16.1 40C16.1 40.1 16 40.2 16 40.2C15.9 40.3 15.8 40.5 15.6 40.5C15.5 40.5 15.4 40.6 15.2 40.6C15 40.6 14.8 40.7 14.7 40.6C14.5 40.5 14.2 40.4 14.1 40L14 39.9C13.9 39.7 13.8 39.5 13.8 39.3C13.8 39 13.8 38.6 13.9 38.3C13.9 38.2 14 38.1 14 38C14.1 37.8 14.3 37.7 14.2 37.4C14.1 37.1 14.2 36.8 14.5 36.7C14.7 36.6 14.9 36.4 15.1 36.3C15.2 36.2 15.8 36 15.9 36C16.2 36 16.4 36.3 16.7 36.2C16.9 36.2 17 36.1 17.2 36.1C17.2 36 17.1 35.8 17 35.6C17.1 35.6 17.2 35.6 17.3 35.6C17.4 35.6 17.5 35.7 17.6 35.6C17.9 35.4 18.1 35.6 18.4 35.7C18.5 35.8 18.6 35.8 18.7 35.7H18.9C19 35.9 19.2 36.1 19.1 36.3C19.1 36.4 19.1 36.5 19.1 36.6C19.1 36.6 19.1 36.6 19.2 36.6C19.2 36.7 19.2 36.7 19.2 36.8C19.2 36.9 19.3 37 19.3 37V37.1C19.4 37.2 19.4 37.3 19.5 37.3C19.6 37.4 19.6 37.4 19.7 37.5C19.9 37.3 19.9 37 19.9 36.8C19.9 36.7 19.9 36.6 19.9 36.6C19.8 36.4 19.8 36.1 19.7 35.9C19.6 35.5 19.7 35.1 19.9 34.8C20.1 34.6 20.2 34.5 20.4 34.3C20.7 34.1 21 33.8 21.3 33.6C21.1 33.3 21.5 33.4 21.6 33.2C21.6 33.1 21.6 33 21.6 32.9C21.6 32.8 21.6 32.7 21.5 32.7L21.4 32.6C21.5 32.4 21.4 32.3 21.4 32.1V32C21.5 32.1 21.6 32.2 21.7 32.3H21.8C21.9 32.1 21.9 31.8 22 31.6C22.1 31.6 22.2 31.6 22.2 31.6C22.3 31.4 22.4 31.3 22.5 31.1C22.6 31 22.6 30.9 22.7 30.9C22.8 30.8 23 30.8 23.1 30.7C23.1 30.7 23.1 30.7 23.1 30.6C23 30.6 22.9 30.6 22.8 30.6V30.5C23 30.4 23.2 30.3 23.4 30.3C23.7 30.2 23.7 30.2 23.5 30C23.5 29.9 23.6 29.9 23.6 29.8C23.7 29.4 24 29.3 24.4 29.1C24.6 29 24.9 29 24.9 28.7C25 28.7 25.1 28.8 25.2 28.8C25.2 28.9 25.1 28.9 25.1 29C24.9 29.2 24.9 29.3 25.2 29.4C25.4 29.5 25.6 29.5 25.7 29.3C25.8 29.1 26 29 26.2 28.9C26.6 28.8 26.8 28.5 27 28.2C27.1 28.2 27.2 28.3 27.3 28.2C27.4 28.2 27.5 28 27.5 27.9H27.2C27.3 27.7 27.4 27.6 27.6 27.5C27.4 27.5 27.3 27.5 27.2 27.7C27.1 27.8 27.1 27.9 27 28.1C26.9 28.2 26.9 28.2 26.8 28.1C26.8 28 26.7 28 26.6 28C26.4 27.9 26.2 27.8 26.1 27.7C26 27.6 26.1 27.5 26.1 27.4C26.1 27.3 26.1 27.2 26.2 27.1C26.3 27.1 26.3 27 26.3 26.9C26.3 26.9 26.3 26.9 26.3 26.8C26.4 26.6 26.3 26.5 26 26.5H25.9C25.8 26.5 25.6 26.6 25.5 26.6C25.4 26.6 25.3 26.7 25.1 26.8C25.2 26.6 25.4 26.4 25.6 26.2C25.6 26.2 25.6 26.2 25.7 26.2C26.2 26.2 26.6 26.1 27.1 26.1C27.6 26.1 27.9 26 28.2 25.5C28.3 25.4 28.4 25.3 28.4 25.3C28.6 25.2 28.8 25.1 28.9 25C29.1 24.9 29.1 24.6 29.1 24.4C29.1 24.3 29 24.2 28.9 24.2C28.8 24.1 28.7 24.1 28.7 23.9C28.7 23.8 28.6 23.8 28.5 23.7C28.3 23.6 28.2 23.6 28 23.5C27.8 23.4 27.7 23.2 27.6 23C27.5 22.9 27.5 22.8 27.6 22.7C27.6 22.7 27.7 22.6 27.7 22.5C27.6 22.2 27.5 21.9 27.4 21.6C27.3 21.3 27 21.1 27.2 20.7L27.1 20.6C27.1 20.6 27 20.6 27 20.7C26.9 20.8 26.8 21 26.8 21.2C26.7 21.4 26.5 21.6 26.3 21.8C26.1 21.7 26 21.6 25.9 21.5C25.7 21.4 25.7 21.3 25.7 21.1C25.7 20.9 25.8 20.7 25.9 20.5C25.8 20.4 25.7 20.3 25.6 20.3C25.4 20.3 25.3 20.3 25.2 20.1C25.2 20 25.1 19.9 25 19.9C24.9 19.9 24.7 19.8 24.7 19.9C24.5 20 24.3 20 24.1 20.1C24 20.1 23.9 20.1 23.8 20.1C23.6 20.1 23.5 20.2 23.6 20.4C23.6 20.5 23.6 20.5 23.5 20.6C23.3 20.8 23.3 21 23.4 21.2C23.4 21.5 23.3 21.7 23.1 21.8C23 21.9 22.9 22 23 22.1C23.3 22.4 23.4 22.8 23.3 23.2C23.3 23.3 23.3 23.3 23.3 23.4V23.5C23.1 23.8 22.8 24.1 22.5 24.3C22 24.4 22 24.6 22 24.7C22.1 25.1 22 25.5 21.9 25.8C21.8 26 21.6 26.1 21.5 26C21.3 25.8 21.2 25.5 21.2 25.2C21.2 25 21.3 24.7 21.3 24.5C21.4 24.3 21.4 24.2 21.1 24.2C21 24.2 20.9 24.2 20.9 24.2C20.5 24.2 20.2 24 20 24C19.9 24 19.9 23.8 19.8 23.7L19.7 23.6C19.4 23.5 19.1 23.2 18.7 23.4C18.7 23.2 18.7 23 18.6 22.8C18.6 22.7 18.5 22.6 18.4 22.6C18.2 22.6 18.2 22.6 18.2 22.4C18.2 22.1 18.4 21.8 18.6 21.6C18.8 21.4 19 21.1 19.2 20.9C19.4 20.7 19.6 20.6 19.8 20.5C19.9 20.4 20 20.3 20 20.2C20 20.1 20 20 20.1 20C20.2 20 20.2 19.9 20.2 19.8C20.3 19.6 20.4 19.5 20.6 19.5C20.8 19.5 20.6 19.6 20.7 19.4C20.7 19.3 21.1 19.1 21.2 18.9L21.3 18.8C21.4 18.7 21.5 18.5 21.5 18.4C21.5 18.3 21.6 18.2 21.8 18.3C21.9 18.3 21.6 18.5 21.7 18.5C21.8 18.5 22.1 18.2 22.2 18.1C22.2 18.1 22.3 18.1 22.4 18.1C22.6 18 22.8 17.8 23 17.7C23.2 17.6 23.2 17.4 23.1 17.2C23 17.1 23 17 23.1 16.9C23.2 16.7 23.3 16.5 23.4 16.3C23.4 16.3 23.4 16.3 23.4 16.2H23V16.1C23 16 22.9 15.9 22.8 15.9C22.6 16 22.5 16.1 22.4 16.2C22.4 16.3 22.4 16.3 22.4 16.4C22.4 16.5 22.4 16.5 22.4 16.6C22.2 16.9 22 17.2 21.8 17.6C21.7 17.7 21.6 17.9 21.5 17.8C21.3 17.7 21.3 17.4 21.4 17.2C21.4 17.1 21.5 17.1 21.5 17C21.5 17 21.5 17 21.4 17.1C21.1 17.3 20.8 17.6 20.5 17.9C20.1 18.2 19.8 18.5 19.5 18.8C19.2 19.1 18.9 19.4 18.6 19.8C18.3 20.1 18 20.5 17.7 20.8C17.4 21.1 17.2 21.5 16.9 21.8C16.7 22.1 16.5 22.4 16.3 22.7C16.1 22.9 16 23.2 15.8 23.5C15.8 23.6 15.7 23.7 15.6 23.7C15.4 23.9 15.3 24.2 15.2 24.5C15.1 24.6 15.1 24.7 15 24.8C14.9 25.1 14.7 25.3 14.6 25.6C14.4 26 14.3 26.3 14.1 26.7C13.9 27.3 13.6 27.8 13.4 28.4C13.3 28.6 13.3 28.8 13.2 29C13.1 29.3 13 29.7 12.9 30C12.8 30.4 12.7 30.8 12.6 31.2C12.5 31.9 12.3 32.6 12.3 33.3C12.3 33.5 12.3 33.7 12.2 33.8C12.2 33.9 12.2 33.9 12.2 34C12.2 34.2 12.2 34.5 12.1 34.7V34.8C12.1 35.2 12.1 35.6 12.1 36C12.1 36.5 12.1 36.9 12.1 37.3C12.1 37.7 12.2 38.2 12.2 38.6C12.2 39 12.3 39.3 12.3 39.7C12.3 39.9 12.4 40.2 12.4 40.4C12.4 40.6 12.5 40.9 12.5 41.1V41.2C12.7 41.3 12.9 41.3 13.1 41.4C13.4 41.5 13.7 41.6 14.1 41.5C14.5 41.4 14.8 41.5 15.1 41.8C15.2 42 15.4 42.1 15.6 42.2C15.9 42.4 16.3 42.5 16.7 42.4C16.9 42.6 17 42.8 17.1 43.1C17.2 43.2 17.2 43.3 17.2 43.5C17.2 43.6 17.2 43.7 17.3 43.8H17.5C17.6 43.9 17.9 44 17.8 44.3C18 44.3 18.1 44.3 18.3 44.4C18.4 44.5 18.7 44.5 18.7 44.6C18.8 44.9 18.9 44.8 19.2 44.8H19.3C19.4 44.8 19.5 44.8 19.7 44.9C19.8 44.9 19.9 44.9 19.9 45.1C19.8 45.4 19.8 45.8 19.8 46.1L19.7 46.2C19.6 46.3 19.5 46.5 19.4 46.6C19.3 46.7 19.2 46.8 19.2 46.8C19.1 46.9 19.1 46.9 19.1 47C19.1 47.1 19.1 47.2 19 47.3C19 47.5 18.9 47.6 18.8 47.8C18.8 48 18.7 48.2 18.8 48.3C19 48.5 18.9 48.6 18.7 48.8C18.6 49 18.6 49.5 18.7 49.6C18.9 49.7 19.1 49.9 19.2 50.1C19.5 50.4 19.8 50.7 20 51.2C20.1 51.5 20.2 51.7 20.4 51.9C20.5 52 20.5 52.2 20.6 52.3C20.6 52.4 20.6 52.4 20.6 52.5C20.8 52.7 21 52.9 21.3 53.1C21.5 53.3 21.8 53.4 22.1 53.5C22.6 53.8 22.9 54.2 22.9 54.7C22.9 55.1 22.9 55.5 22.9 55.9C23.8 56.5 24.7 57 25.7 57.5C26 57.6 26.3 57.8 26.6 57.9C26.8 58 27.1 58.1 27.3 58.2C27.7 58.4 28.1 58.5 28.5 58.6C28.8 58.7 29.1 58.8 29.3 58.8C29.5 58.6 29.6 58.4 29.7 58.3C29.7 58.2 29.8 58.1 29.8 58C29.8 57.9 29.8 57.8 29.7 57.6C29.6 57.3 29.7 57.1 29.9 56.9C30.2 56.8 30.4 56.7 30.7 56.5C30.8 56.5 30.8 56.4 30.9 56.4C31 56.4 31 56.3 31.1 56.3C31.3 56.3 31.4 56.3 31.6 56.2C31.8 56.2 32 56.1 32 55.8C32 55.5 32.2 55.2 32.4 55C32.4 54.9 32.5 54.9 32.5 54.8C32.6 54.5 32.6 54.2 32.7 53.9C32.7 53.7 32.7 53.5 32.7 53.2C32.7 53.1 32.7 52.9 32.7 52.8C32.7 52.7 32.8 52.5 32.9 52.4C33.1 52.3 33.1 52.2 33.2 52C33.3 51.8 33.4 51.6 33.5 51.5C34.4 51.8 34.6 51.3 34.5 50.7Z" fill="url(#paint8_linear_123_17057)"/>
<path d="M36.5 16.2C36.5 16.1 36.6 16.1 36.6 16C36.7 16 36.7 16 36.8 16C36.7 16 36.7 16 36.6 16C36.5 16.1 36.5 16.1 36.5 16.2Z" fill="url(#paint9_linear_123_17057)"/>
<path d="M39.8 14.4C39.6 14.6 39.4 14.7 39.2 14.9C39.1 15 39.1 15.1 39.1 15.3C38.9 15.1 38.7 15.3 38.5 15.4C38.3 15.5 38.1 15.5 37.9 15.6C37.7 15.7 37.4 15.8 37.2 15.8H37.1C37.1 15.8 37 15.8 36.9 15.8C36.9 15.9 36.9 16 36.8 16C36.7 16.2 36.5 16.3 36.3 16.5C36.2 16.6 36 16.7 35.9 16.9C35.8 17.1 35.5 17.1 35.4 17.3C35.4 17.3 35.4 17.3 35.3 17.3C35.2 17.1 35 17.3 34.9 17.3C34.6 17.3 34.5 17.4 34.4 17.6V17.7C34.4 17.9 34.4 18.2 34.3 18.4C34.3 18.6 34.1 18.7 34 18.9C33.9 19.1 33.8 19.3 33.7 19.6C33.6 19.9 33.4 20.1 33.5 20.4C33.5 20.4 33.4 20.5 33.4 20.6C33.3 20.6 33.2 20.7 33.2 20.7C33.1 20.6 33 20.5 32.9 20.4C32.9 20.4 32.9 20.4 32.9 20.3C32.8 20.2 32.6 20.2 32.5 20.1C32.5 20.1 32.5 20.1 32.5 20C32.4 20.1 32.2 20.1 32 20.2C31.9 20 31.8 19.9 31.8 19.7C31.7 19.5 31.8 19.4 31.5 19.3C31.3 19.3 31 18.6 31 18.3C31 18.2 31 18.1 30.9 18C30.8 17.8 30.9 17.5 30.6 17.4C30.6 17.4 30.5 17.2 30.6 17.1C30.6 17 30.7 16.9 30.6 16.7C30.6 16.6 30.6 16.5 30.6 16.4C30.6 16.1 31 15.7 31.3 15.6C31.4 15.6 31.5 15.5 31.5 15.4C31.5 15.3 31.5 15.1 31.6 15.1C31.6 14.9 31.6 14.8 31.6 14.6H31.2C31.3 15 31.3 15 30.9 15.2C30.6 15.3 30.5 15.3 30.3 15V14.9C30.4 14.7 30.4 14.4 30.7 14.3C30.7 14.2 30.6 14.1 30.6 14.1C30.6 14 30.7 14 30.8 14C31 14 31.2 14.1 31.4 14.1C31.5 14.1 31.6 14.1 31.6 14C31.6 13.9 31.8 13.7 31.5 13.7C31.3 13.6 31 13.3 30.7 13.6C30.7 13.6 30.5 13.7 30.5 13.6C30.5 13.6 30.4 13.5 30.4 13.4C30.4 13.2 30.4 13 30.6 12.8V12.7C30.6 12.6 30.5 12.4 30.5 12.3C32.3 11.9 34.1 11.7 36 11.7C37.3 11.7 38.6 11.8 39.8 12C39.8 12 39.7 12 39.7 12.1C39.6 12.1 39.5 12.1 39.4 12.1C39.4 12.1 39.4 12.1 39.4 12.2C39.5 12.3 39.7 12.4 39.8 12.5C39.9 12.6 39.8 12.8 39.8 13C39.8 13 39.7 13 39.7 13.1C39.7 13.1 39.7 13.1 39.7 13.2C39.7 13.3 39.8 13.3 39.8 13.4C40 14 40 14.1 39.8 14.4Z" fill="url(#paint10_linear_123_17057)"/>
<path d="M23.2 16.2C23.1 16.2 23.1 16.1 23 16.1C23.1 16.1 23.1 16.1 23.2 16.2Z" fill="url(#paint11_linear_123_17057)"/>
<path d="M28.5 17C28.4 17.1 28.3 17.2 28.2 17.3C28.2 17.4 28.1 17.4 28 17.4C27.9 17.6 27.8 17.8 27.7 18C27.6 18.2 27.5 18.2 27.3 18C27.1 17.8 26.9 17.6 26.7 17.4C26.5 17.6 26.5 18 26.7 18.1C26.8 18.2 26.9 18.2 27 18.2C27.1 18.3 27.1 18.5 27 18.7C26.9 18.9 26.9 19 27.2 19C27.3 19 27.3 19.1 27.4 19.1L27.3 19.2C27.2 19.2 27.2 19.2 27.1 19.1C26.8 18.8 26.5 18.8 26.2 18.8C26.2 18.8 26.1 18.8 26.1 18.9C26.1 18.9 26.1 19 26.2 19C26.4 19.1 26.5 19.2 26.7 19.3C26.9 19.4 26.9 19.5 26.8 19.6C26.8 19.7 26.6 19.7 26.6 19.7C26.3 19.6 25.9 19.7 25.6 19.7C25.4 19.7 25.3 19.7 25.2 19.7C25.1 19.4 25 19.2 24.9 19C24.8 19 24.8 19 24.7 18.9H24.5C24.4 19.1 24.1 19 24 19.2C24 19.3 23.8 19.3 23.7 19.3C23.6 19.3 23.5 19.2 23.6 19C23.6 19 23.6 18.9 23.7 18.8C23.8 18.6 23.8 18.5 24.1 18.5C24.5 18.5 24.8 18.3 25.2 18.2C25.1 18.1 25.1 18 25 17.8C24.9 17.7 24.9 17.7 25 17.6C25.2 17.4 25.4 17.3 25.4 17C25.4 16.9 25.5 16.9 25.6 16.8C25.5 16.6 25.4 16.3 25.3 16C25.2 16.1 25.1 16.2 25 16.2C24.8 15.9 25.2 15.5 24.7 15.4C24.7 15.4 24.6 15.4 24.6 15.5C24.6 15.4 24.6 15.3 24.5 15.2H24.4C24.3 15.4 24.1 15.4 23.9 15.3C23.8 15.2 23.7 15.3 23.7 15.5C23.7 15.6 23.7 15.7 23.7 15.8C23.6 15.8 23.6 15.7 23.5 15.7H23C23.9 15.1 24.8 14.6 25.7 14.2L25.8 14.3C26.1 14.3 26.3 14.4 26.4 14.5C26.5 14.6 26.7 14.7 26.9 14.8C27.1 14.9 27.1 15 26.9 15.2C27 15.3 27.1 15.3 27.1 15.4C27 15.6 26.9 15.7 26.7 15.8C26.8 15.9 26.9 16 27 16.1C27.1 16.1 27.2 16.2 27.3 16.2C27.5 16.1 27.6 16.2 27.7 16.3C27.7 16.4 27.8 16.5 27.9 16.5C28 16.5 28.2 16.5 28.3 16.5C28.4 16.5 28.5 16.5 28.5 16.5C28.5 16.8 28.5 17 28.5 17Z" fill="url(#paint12_linear_123_17057)"/>
<path d="M44.3 22C44.4 22.2 44.4 22.3 44.5 22.4C44.5 22.5 44.4 22.5 44.4 22.6C44.5 22.7 44.5 22.9 44.8 22.9L44.9 23C44.9 23.1 44.9 23.2 44.9 23.3C44.9 23.5 44.9 23.6 45.1 23.5C45.2 23.5 45.6 23.3 45.7 23.3C45.7 23.4 45.4 23.7 45.5 23.7C45.7 23.8 45.6 23.9 45.6 24.1C45.5 24.2 45.4 24.2 45.3 24.1C45.1 24 45.1 24 45 24.1C45 24.2 45 24.3 45 24.5C45 24.5 45.1 24.5 45.2 24.6C45.1 24.7 45 24.7 45 24.8C45 24.9 44.9 24.9 44.9 25C44.9 25 45 25.1 45.1 25.1C45.1 25.1 45.1 25.1 45.2 25.1C45 25.3 44.9 25.6 44.7 25.8C44.8 25.9 44.9 25.9 45 25.8C45.1 25.7 45.2 25.7 45.3 25.7C45.4 25.7 45.5 25.6 45.6 25.6C45.7 25.6 45.7 25.6 45.8 25.6C46 25.6 46.2 25.6 46.4 25.5C46.5 25.5 46.6 25.4 46.7 25.5C46.9 25.6 47 25.5 47.1 25.4C47.1 25.4 47 25.2 47 25.1C47 25.1 47.1 25.1 47.1 25C47.2 24.9 47.3 24.7 47.3 24.6C47.3 24.5 47.1 24.4 47 24.4C46.8 24.4 46.8 24.2 46.8 24.1C46.8 24 46.7 23.9 46.6 23.8C46.3 23.4 46.1 23.1 45.8 22.8V22.7C45.8 22.5 45.9 22.3 45.9 22.1C45.9 21.9 45.9 21.8 45.7 21.8C45.6 21.8 45.4 21.8 45.3 21.8C45.4 21.7 45.5 21.6 45.5 21.5C45.5 21.4 45.5 21.3 45.5 21.2C45.4 21.1 45 21.2 45 21.3C44.9 21.6 44.8 21.8 44.7 22.1C44.7 22 44.6 21.9 44.6 21.8C44.4 21.9 44.3 21.9 44.3 22Z" fill="url(#paint13_linear_123_17057)"/>
<path d="M41.1 18.2C41.5 18.2 41.7 18 42 17.8C42.1 17.8 42.1 17.6 42.2 17.6C42.3 17.5 42.4 17.2 42.2 17.2C42 17.1 41.8 17 42 16.8C41.9 16.8 41.8 16.7 41.6 16.7C41.5 16.7 41.4 16.7 41.4 16.7C41.3 16.8 41.1 16.9 40.9 16.9C40.7 16.9 40.4 16.9 40.3 17C40.1 17.1 40 17 39.9 16.9C39.9 16.9 39.9 16.9 39.8 16.8C39.7 16.6 39.6 16.7 39.5 16.8C39.4 17 39.4 17.2 39.2 17.3C39.2 17.3 39.2 17.3 39.2 17.4C39.3 17.4 39.4 17.5 39.5 17.5C39.5 17.6 39.4 17.6 39.4 17.6L39.3 17.7C39.4 17.7 39.4 17.7 39.5 17.7C39.7 17.7 39.8 17.8 39.8 17.9C39.7 18 39.7 18.1 39.6 18.1C39.7 18.1 39.8 18.1 39.9 18.1C40 18.1 40 18.1 40.1 18.1C40.2 18.1 40.3 18.1 40.3 18.2C40.6 18.5 40.9 18.5 41.1 18.2Z" fill="url(#paint14_linear_123_17057)"/>
<path d="M28.1 26.1C28.1 26.4 28 26.6 27.8 26.8L27.7 26.9C27.7 27 27.7 27.1 27.6 27.2C27.6 27.3 27.6 27.3 27.6 27.4L27.7 27.5C28 27.5 28.3 27.4 28.6 27.4C28.7 27.4 28.8 27.4 28.9 27.4C28.9 27.4 28.9 27.6 28.9 27.7C29.1 27.7 29.2 27.3 29.4 27.4C29.4 27.5 29.4 27.6 29.3 27.7C29.5 27.6 29.7 27.9 29.8 27.6C29.8 27.4 29.8 27.3 29.9 27.1C29.8 27.1 29.7 27.1 29.7 27.2C29.7 27.1 29.7 27 29.8 26.9C29.7 26.9 29.6 26.9 29.5 27C29.5 26.9 29.5 26.8 29.5 26.7C29.5 26.6 29.4 26.5 29.4 26.5C29.3 26.5 29.2 26.5 29.1 26.5C29 26.5 28.9 26.5 28.9 26.5C28.9 26.3 28.7 26.3 28.5 26.4C28.7 26.1 28.8 25.8 28.9 25.5C28.4 25.4 28.1 25.7 28.1 26.1Z" fill="url(#paint15_linear_123_17057)"/>
<path d="M43.3 25.1C43.3 25.2 43.4 25.2 43.5 25.2C43.7 25.2 43.9 25.2 44 25.1C44.4 24.8 44.6 24.7 44.4 24.2C44.3 24.1 44.4 23.9 44.6 23.8C44.7 23.8 44.7 23.7 44.7 23.6C44.7 23.4 44.5 23.3 44.3 23.2C44.1 23.1 43.8 23.2 43.8 23.4C43.8 23.6 43.7 23.6 43.5 23.6C43.4 23.6 43.4 23.6 43.4 23.7C43.3 23.9 43.3 24 43.3 24.2C43.4 24.2 43.8 24.1 43.9 24.1C43.8 24.3 43.4 24.6 43.3 24.8C43.2 24.9 43.2 25 43.3 25.1Z" fill="url(#paint16_linear_123_17057)"/>
<path d="M20.9 40.2H21C21.1 40.2 21.2 40.1 21.3 40.1C21.3 40 21.3 39.9 21.3 39.9C21.1 39.8 21 39.8 20.8 39.7C20.6 39.6 20.8 39.2 20.5 39.2C20.2 39.2 19.6 39.2 19.3 39.1C19 39 18.7 39 18.3 39C18.1 39 17.8 39.2 17.8 39.5C17.9 39.4 18 39.4 18.1 39.3C18.2 39.2 18.4 39.1 18.6 39.2C18.8 39.3 19 39.4 19.2 39.5C19.3 39.6 19.4 39.6 19.6 39.6C19.7 39.6 19.7 39.7 19.7 39.7C19.8 39.8 19.8 40 19.9 40.1C19.9 40.3 20.3 40.2 20.4 40.2C20.7 40 20.6 40 20.9 40.2Z" fill="url(#paint17_linear_123_17057)"/>
<path d="M21.8 40.8C21.9 40.8 22 40.9 22.2 40.9C22.5 40.9 22.8 40.8 23 40.7C23.1 40.7 23.1 40.6 23.2 40.5C23.1 40.4 23.1 40.4 23 40.3C22.9 40.2 23.1 40.1 23 40C22.9 40 22.5 40.1 22.4 40.1C22.2 40 22 40 21.7 40C21.7 40 21.6 40.1 21.6 40.2C21.6 40.3 21.7 40.4 21.7 40.5C21.5 40.5 21.4 40.4 21.3 40.5C21.2 40.5 21.1 40.6 21 40.6C21.1 40.7 21.1 40.8 21.2 40.8C21.5 40.8 21.7 40.8 21.8 40.8Z" fill="url(#paint18_linear_123_17057)"/>
<path d="M21.9 19.8C22 19.8 22 19.6 22.1 19.5C22 19.5 21.9 19.5 21.9 19.5C21.7 19.3 21.6 19.1 21.5 19C21.4 18.9 21.3 18.9 21.2 18.8C21.2 18.8 21.1 18.9 21.1 19C21 19.3 21 19.6 20.7 19.8C20.6 19.8 20.6 19.9 20.7 20C20.8 20 20.8 20.1001 20.9 20.2001C21.1 20.2001 21.2 20 21.2 19.8C21.2 19.7 21.3 19.5 21.5 19.5C21.5 19.6 21.5 19.7 21.4 19.8C21.6 19.8 21.8 19.9 21.9 19.8Z" fill="url(#paint19_linear_123_17057)"/>
<path d="M49.6 31.3C49.6 31.4 49.7 31.5 49.8 31.5C49.9 31.5 50.3 31.2001 50.3 31.2001C50.4 31.0001 50 31 50.1 30.8C50 30.7 50.3 30.4 50.2 30.3C50.1 30.4 49.5 30.6 49.5 30.8C49.4 30.9 49.5 31.1 49.6 31.3Z" fill="url(#paint20_linear_123_17057)"/>
<path d="M19.9 40.5C19.8 40.5 20.1 40.4 19.9 40.5C20.3 40.8 20 41 20.2 40.9C20.3 40.9 20.4 40.8 20.4 40.7C20.3 40.6 20.3 40.5 20.2 40.5C20.2 40.5 20.1 40.5 19.9 40.5Z" fill="url(#paint21_linear_123_17057)"/>
<path d="M58.4 33C58.4 33.1 58.4 33.1 58.4 33.1C58.5 33.1 58.5 33.1 58.4 33Z" fill="url(#paint22_linear_123_17057)"/>
<path d="M58.4 33C58.4 33.1 58.4 33.1 58.4 33.1L58.3 33.2C58.1 33.3 57.9 33.3 57.8 33.4C57.6 33.5 57.6 33.6 57.8 33.7C58 33.8 58.2 33.8 58.3 33.6C58.4 33.4 58.6 33.3 58.4 33C58.4 33 58.5 33 58.4 33Z" fill="url(#paint23_linear_123_17057)"/>
<path d="M49.8 30.3C49.9 30.2 49.9 30.2 49.9 30.1C49.9 29.9 49.9 29.7 49.9 29.4C49.5 29.6 49.5 29.8 49.6 30.1C49.6 30.2 49.7 30.3 49.8 30.3Z" fill="url(#paint24_linear_123_17057)"/>
<path d="M55.5 33.5999C55.6 33.5999 55.6 33.5 55.7 33.5C55.6 33.5 55.6 33.4 55.5 33.4C55.3 33.4 55.5 33.2 55.3 33.2C55.2 33.2 54.8 33.4 54.7 33.4V33.5C54.9 33.5 55.2 33.5999 55.5 33.5999Z" fill="url(#paint25_linear_123_17057)"/>
<path d="M26 26.5C26 26.5 25.9 26.5 25.8 26.6C25.9 26.7 26 26.8 26.1 26.9C26.2 27 26.4 27 26.5 27.1C26.5 27.1 26.6 27.1 26.6 27V26.9C26.5 26.6 26.2 26.5 26 26.5Z" fill="url(#paint26_linear_123_17057)"/>
<path d="M24.2 16.7C24.1 16.9 24 17 24 17.1C24 17.1 24.4 17.1 24.5 17.1C24.6 17 24.3 17 24.4 16.9C24.4 16.9 24.3 16.9 24.2 16.7Z" fill="url(#paint27_linear_123_17057)"/>
<path d="M23.9 40.9C24 40.8 24.4 40.6 24.5 40.5C24.4 40.4 24 40.5 23.9 40.5C23.8 40.5 23.7 40.6 23.7 40.7C23.7 40.8 23.7 40.8 23.9 40.9Z" fill="url(#paint28_linear_123_17057)"/>
<path d="M44.5 21.3C44.5 21.3 44.4 21.3 44.5 21.3C44.4 21.2 44.7 21.1 44.6 21.1C44.5 21.2 44.2 21.6 44.1 21.7C44.4 21.7 44.4 21.5 44.5 21.3Z" fill="url(#paint29_linear_123_17057)"/>
<path d="M21.4 20.5C21.6 20.3 21.8 20.2 22 20C22 20 22 20 21.9 19.9C21.8 20.1 21.6 20.3 21.4 20.5C21.4 20.5 21.4 20.4 21.4 20.5Z" fill="url(#paint30_linear_123_17057)"/>
<path d="M25.3 43.8C25.3 43.9 25.4 43.9 25.4 44C25.4 44 25.5 43.9 25.6 43.8C25.5 43.7 25.5 43.7 25.5 43.6C25.3 43.7 25.2 43.8 25.3 43.8Z" fill="url(#paint31_linear_123_17057)"/>
<path d="M48 31.1C48 31 47.9 31 47.9 30.9C47.9 31 47.8 31 47.7 31.1C47.8 31.2 47.8 31.2 47.9 31.3C47.9 31.2 48 31.2 48 31.1Z" fill="url(#paint32_linear_123_17057)"/>
<path d="M23.4 16.2C23.3 16.2 23.3 16.2 23.2 16.1C23.3 16.2 23.3 16.2 23.4 16.2Z" fill="url(#paint33_linear_123_17057)"/>
<path d="M23.5 16.2C23.5 16.2 23.6 16.1 23.6 16C23.5 16.1 23.3 16.1 23.2 16.2C23.3 16.3 23.4 16.3 23.4 16.3C23.4 16.2 23.5 16.2 23.5 16.2Z" fill="url(#paint34_linear_123_17057)"/>
<path d="M53.6 21.5C53.5 21.5 53.4 21.6 53.4 21.7C53.5 21.8 53.5 21.9 53.6 21.9C53.7 21.9 53.8 21.8 53.9 21.7V21.6C53.7 21.5 53.6 21.4 53.6 21.5Z" fill="url(#paint35_linear_123_17057)"/>
<path d="M52.2 22.3C52.2 22.3 52.3 22.4 52.3 22.5C52.4 22.4 52.4 22.3 52.5 22.2C52.4 22.1 52.4 22.1 52.3 22C52.4 22.1 52.3 22.2 52.2 22.3Z" fill="url(#paint36_linear_123_17057)"/>
<path opacity="0.2" d="M49.5 37.5999C48.4 36.4999 46.6 38.2999 46.6 38.2999L43.9 40.9999L34.2 39.7999L33.1 40.8999L40.4 44.4999L37.7 47.1999L35 46.2999L33.9 47.3999L37.5 49.5999L39.7 53.1999L40.8 52.0999L39.9 49.3999L42.6 46.6999L46.2 53.9999L47.3 52.8999L46.1 43.1999L48.8 40.4999C48.7 40.4999 50.6 38.6999 49.5 37.5999Z" fill="black"/>
<path d="M49.5 35.5999C48.4 34.4999 46.6 36.2999 46.6 36.2999L43.9 38.9999L34.2 37.7999L33.1 38.8999L40.4 42.4999L37.7 45.1999L35 44.2999L33.9 45.3999L37.5 47.5999L39.7 51.1999L40.8 50.0999L39.9 47.3999L42.6 44.6999L46.2 51.9999L47.3 50.8999L46.1 41.1999L48.8 38.4999C48.7 38.4999 50.6 36.6999 49.5 35.5999Z" fill="#FFD200"/>
</g>
<defs>
<linearGradient id="paint0_linear_123_17057" x1="55.0897" y1="2.81493" x2="1.60331" y2="95.7914" gradientUnits="userSpaceOnUse">
<stop stop-color="#00C4BB"/>
<stop offset="1" stop-color="#009185"/>
</linearGradient>
<linearGradient id="paint1_linear_123_17057" x1="37.5941" y1="-4.71353" x2="17.3441" y2="32.0365" gradientUnits="userSpaceOnUse">
<stop stop-color="#00A5A4"/>
<stop offset="1" stop-color="#005E5D"/>
</linearGradient>
<linearGradient id="paint2_linear_123_17057" x1="41.4796" y1="-2.57239" x2="21.2295" y2="34.1776" gradientUnits="userSpaceOnUse">
<stop stop-color="#00A5A4"/>
<stop offset="1" stop-color="#005E5D"/>
</linearGradient>
<linearGradient id="paint3_linear_123_17057" x1="60.7161" y1="7.96512" x2="40.3991" y2="44.8366" gradientUnits="userSpaceOnUse">
<stop stop-color="#00A5A4"/>
<stop offset="1" stop-color="#005E5D"/>
</linearGradient>
<linearGradient id="paint4_linear_123_17057" x1="65.2724" y1="10.5379" x2="45.0224" y2="47.2878" gradientUnits="userSpaceOnUse">
<stop stop-color="#00A5A4"/>
<stop offset="1" stop-color="#005E5D"/>
</linearGradient>
<linearGradient id="paint5_linear_123_17057" x1="41.3357" y1="-2.65198" x2="21.0856" y2="34.0982" gradientUnits="userSpaceOnUse">
<stop stop-color="#00A5A4"/>
<stop offset="1" stop-color="#005E5D"/>
</linearGradient>
<linearGradient id="paint6_linear_123_17057" x1="40.9632" y1="-2.85701" x2="20.7129" y2="33.8928" gradientUnits="userSpaceOnUse">
<stop stop-color="#00A5A4"/>
<stop offset="1" stop-color="#005E5D"/>
</linearGradient>
<linearGradient id="paint7_linear_123_17057" x1="37.5941" y1="-4.71341" x2="17.3441" y2="32.0366" gradientUnits="userSpaceOnUse">
<stop stop-color="#00A5A4"/>
<stop offset="1" stop-color="#005E5D"/>
</linearGradient>
<linearGradient id="paint8_linear_123_17057" x1="45.9447" y1="-0.118675" x2="25.6928" y2="36.6348" gradientUnits="userSpaceOnUse">
<stop stop-color="#00A5A4"/>
<stop offset="1" stop-color="#005E5D"/>
</linearGradient>
<linearGradient id="paint9_linear_123_17057" x1="45.5745" y1="-0.316163" x2="25.3243" y2="36.4339" gradientUnits="userSpaceOnUse">
<stop stop-color="#00A5A4"/>
<stop offset="1" stop-color="#005E5D"/>
</linearGradient>
<linearGradient id="paint10_linear_123_17057" x1="43.4239" y1="-1.50115" x2="23.1739" y2="35.2489" gradientUnits="userSpaceOnUse">
<stop stop-color="#00A5A4"/>
<stop offset="1" stop-color="#005E5D"/>
</linearGradient>
<linearGradient id="paint11_linear_123_17057" x1="35.2723" y1="-5.99291" x2="15.0223" y2="30.7572" gradientUnits="userSpaceOnUse">
<stop stop-color="#00A5A4"/>
<stop offset="1" stop-color="#005E5D"/>
</linearGradient>
<linearGradient id="paint12_linear_123_17057" x1="37.5037" y1="-4.76335" x2="17.2536" y2="31.9867" gradientUnits="userSpaceOnUse">
<stop stop-color="#00A5A4"/>
<stop offset="1" stop-color="#005E5D"/>
</linearGradient>
<linearGradient id="paint13_linear_123_17057" x1="55.7646" y1="5.29889" x2="35.5146" y2="42.0489" gradientUnits="userSpaceOnUse">
<stop stop-color="#00A5A4"/>
<stop offset="1" stop-color="#005E5D"/>
</linearGradient>
<linearGradient id="paint14_linear_123_17057" x1="49.3597" y1="1.76963" x2="29.1097" y2="38.5196" gradientUnits="userSpaceOnUse">
<stop stop-color="#00A5A4"/>
<stop offset="1" stop-color="#005E5D"/>
</linearGradient>
<linearGradient id="paint15_linear_123_17057" x1="44.2645" y1="-1.03803" x2="24.0144" y2="35.712" gradientUnits="userSpaceOnUse">
<stop stop-color="#00A5A4"/>
<stop offset="1" stop-color="#005E5D"/>
</linearGradient>
<linearGradient id="paint16_linear_123_17057" x1="54.6732" y1="4.6975" x2="34.4232" y2="41.4475" gradientUnits="userSpaceOnUse">
<stop stop-color="#00A5A4"/>
<stop offset="1" stop-color="#005E5D"/>
</linearGradient>
<linearGradient id="paint17_linear_123_17057" x1="42.5169" y1="-2.00089" x2="22.2669" y2="34.7491" gradientUnits="userSpaceOnUse">
<stop stop-color="#00A5A4"/>
<stop offset="1" stop-color="#005E5D"/>
</linearGradient>
<linearGradient id="paint18_linear_123_17057" x1="44.8682" y1="-0.705367" x2="24.6182" y2="36.0447" gradientUnits="userSpaceOnUse">
<stop stop-color="#00A5A4"/>
<stop offset="1" stop-color="#005E5D"/>
</linearGradient>
<linearGradient id="paint19_linear_123_17057" x1="35.474" y1="-5.88158" x2="15.224" y2="30.8684" gradientUnits="userSpaceOnUse">
<stop stop-color="#00A5A4"/>
<stop offset="1" stop-color="#005E5D"/>
</linearGradient>
<linearGradient id="paint20_linear_123_17057" x1="62.0943" y1="8.78663" x2="41.8443" y2="45.5366" gradientUnits="userSpaceOnUse">
<stop stop-color="#00A5A4"/>
<stop offset="1" stop-color="#005E5D"/>
</linearGradient>
<linearGradient id="paint21_linear_123_17057" x1="43.4269" y1="-1.49961" x2="23.1768" y2="35.2504" gradientUnits="userSpaceOnUse">
<stop stop-color="#00A5A4"/>
<stop offset="1" stop-color="#005E5D"/>
</linearGradient>
<linearGradient id="paint22_linear_123_17057" x1="69.5435" y1="12.8916" x2="49.294" y2="49.6413" gradientUnits="userSpaceOnUse">
<stop stop-color="#00A5A4"/>
<stop offset="1" stop-color="#005E5D"/>
</linearGradient>
<linearGradient id="paint23_linear_123_17057" x1="69.4182" y1="12.8223" x2="49.1682" y2="49.5723" gradientUnits="userSpaceOnUse">
<stop stop-color="#00A5A4"/>
<stop offset="1" stop-color="#005E5D"/>
</linearGradient>
<linearGradient id="paint24_linear_123_17057" x1="61.5551" y1="8.48953" x2="41.3052" y2="45.2396" gradientUnits="userSpaceOnUse">
<stop stop-color="#00A5A4"/>
<stop offset="1" stop-color="#005E5D"/>
</linearGradient>
<linearGradient id="paint25_linear_123_17057" x1="67.1446" y1="11.5696" x2="46.8948" y2="48.3195" gradientUnits="userSpaceOnUse">
<stop stop-color="#00A5A4"/>
<stop offset="1" stop-color="#005E5D"/>
</linearGradient>
<linearGradient id="paint26_linear_123_17057" x1="42.1496" y1="-2.20332" x2="21.8996" y2="34.5467" gradientUnits="userSpaceOnUse">
<stop stop-color="#00A5A4"/>
<stop offset="1" stop-color="#005E5D"/>
</linearGradient>
<linearGradient id="paint27_linear_123_17057" x1="36.5554" y1="-5.28583" x2="16.3054" y2="31.4642" gradientUnits="userSpaceOnUse">
<stop stop-color="#00A5A4"/>
<stop offset="1" stop-color="#005E5D"/>
</linearGradient>
<linearGradient id="paint28_linear_123_17057" x1="46.3419" y1="0.106671" x2="26.0918" y2="36.8567" gradientUnits="userSpaceOnUse">
<stop stop-color="#00A5A4"/>
<stop offset="1" stop-color="#005E5D"/>
</linearGradient>
<linearGradient id="paint29_linear_123_17057" x1="53.8645" y1="4.25176" x2="33.6145" y2="41.0018" gradientUnits="userSpaceOnUse">
<stop stop-color="#00A5A4"/>
<stop offset="1" stop-color="#005E5D"/>
</linearGradient>
<linearGradient id="paint30_linear_123_17057" x1="35.9455" y1="-5.62189" x2="15.6955" y2="31.1281" gradientUnits="userSpaceOnUse">
<stop stop-color="#00A5A4"/>
<stop offset="1" stop-color="#005E5D"/>
</linearGradient>
<linearGradient id="paint31_linear_123_17057" x1="48.7591" y1="1.43852" x2="28.509" y2="38.1886" gradientUnits="userSpaceOnUse">
<stop stop-color="#00A5A4"/>
<stop offset="1" stop-color="#005E5D"/>
</linearGradient>
<linearGradient id="paint32_linear_123_17057" x1="60.6006" y1="7.96365" x2="40.3506" y2="44.7136" gradientUnits="userSpaceOnUse">
<stop stop-color="#00A5A4"/>
<stop offset="1" stop-color="#005E5D"/>
</linearGradient>
<linearGradient id="paint33_linear_123_17057" x1="35.4664" y1="-5.88591" x2="15.2162" y2="30.8641" gradientUnits="userSpaceOnUse">
<stop stop-color="#00A5A4"/>
<stop offset="1" stop-color="#005E5D"/>
</linearGradient>
<linearGradient id="paint34_linear_123_17057" x1="35.5016" y1="-5.86644" x2="15.2517" y2="30.8835" gradientUnits="userSpaceOnUse">
<stop stop-color="#00A5A4"/>
<stop offset="1" stop-color="#005E5D"/>
</linearGradient>
<linearGradient id="paint35_linear_123_17057" x1="60.9731" y1="8.16895" x2="40.7231" y2="44.9189" gradientUnits="userSpaceOnUse">
<stop stop-color="#00A5A4"/>
<stop offset="1" stop-color="#005E5D"/>
</linearGradient>
<linearGradient id="paint36_linear_123_17057" x1="60.3404" y1="7.8202" x2="40.0903" y2="44.5702" gradientUnits="userSpaceOnUse">
<stop stop-color="#00A5A4"/>
<stop offset="1" stop-color="#005E5D"/>
</linearGradient>
<clipPath id="clip0_123_17057">
<rect width="72" height="72" fill="white"/>
</clipPath>
</defs>
</svg>
