<svg width="24" height="24" viewBox="0 0 24 24" fill="none" xmlns="http://www.w3.org/2000/svg">
<path d="M12 14.667C13.473 14.667 14.667 13.473 14.667 12C14.667 10.5271 13.473 9.33301 12 9.33301C10.5271 9.33301 9.33301 10.5271 9.33301 12C9.33301 13.473 10.5271 14.667 12 14.667Z" fill="url(#paint0_linear_125_17169)"/>
<path d="M18.51 8.76994C18.48 7.98994 18.35 7.55994 18.24 7.27994C18.09 6.90994 17.92 6.63994 17.64 6.35994C17.36 6.07994 17.09 5.90994 16.72 5.75994C16.44 5.64994 16.01 5.51994 15.23 5.48994C14.39 5.44994 14.14 5.43994 12 5.43994C9.86 5.43994 9.61 5.44994 8.77 5.48994C7.99 5.51994 7.56 5.64994 7.28 5.75994C6.91 5.90994 6.64 6.07994 6.36 6.35994C6.08 6.63994 5.91 6.90994 5.76 7.27994C5.65 7.55994 5.52 7.98994 5.49 8.76994C5.45 9.60994 5.44 9.85994 5.44 11.9999C5.44 14.1399 5.45 14.3899 5.49 15.2299C5.52 16.0099 5.65 16.4399 5.76 16.7199C5.91 17.0899 6.08 17.3599 6.36 17.6399C6.64 17.9199 6.91 18.0899 7.28 18.2399C7.56 18.3499 7.99 18.4799 8.77 18.5099C9.61 18.5499 9.86 18.5599 12 18.5599C14.14 18.5599 14.39 18.5499 15.23 18.5099C16.01 18.4799 16.44 18.3499 16.72 18.2399C17.09 18.0899 17.36 17.9199 17.64 17.6399C17.92 17.3599 18.09 17.0899 18.24 16.7199C18.35 16.4399 18.48 16.0099 18.51 15.2299C18.55 14.3899 18.56 14.1399 18.56 11.9999C18.56 9.85994 18.55 9.60994 18.51 8.76994V8.76994ZM12 16.1099C9.73 16.1099 7.89 14.2699 7.89 11.9999C7.89 9.72994 9.73 7.88994 12 7.88994C14.27 7.88994 16.11 9.72994 16.11 11.9999C16.11 14.2699 14.27 16.1099 12 16.1099V16.1099ZM16.27 8.68994C15.74 8.68994 15.31 8.25994 15.31 7.72994C15.31 7.19994 15.74 6.76994 16.27 6.76994C16.8 6.76994 17.23 7.19994 17.23 7.72994C17.23 8.25994 16.8 8.68994 16.27 8.68994Z" fill="url(#paint1_linear_125_17169)"/>
<path d="M19 2H5C3.34 2 2 3.34 2 5V19C2 20.66 3.34 22 5 22H19C20.66 22 22 20.66 22 19V5C22 3.34 20.66 2 19 2ZM19.95 15.3C19.91 16.15 19.78 16.73 19.58 17.24C19.38 17.77 19.1 18.21 18.66 18.66C18.21 19.1 17.77 19.38 17.24 19.58C16.73 19.78 16.15 19.91 15.3 19.95C14.45 19.99 14.17 20 12 20C9.83 20 9.55 19.99 8.7 19.95C7.85 19.91 7.27 19.78 6.76 19.58C6.23 19.38 5.79 19.1 5.34 18.66C4.9 18.21 4.62 17.77 4.42 17.24C4.22 16.73 4.09 16.15 4.05 15.3C4.01 14.45 4 14.17 4 12C4 9.83 4.01 9.55 4.05 8.7C4.09 7.85 4.22 7.27 4.42 6.76C4.62 6.23 4.9 5.79 5.34 5.34C5.79 4.9 6.23 4.62 6.76 4.42C7.27 4.22 7.85 4.09 8.7 4.05C9.55 4.01 9.83 4 12 4C14.17 4 14.45 4.01 15.3 4.05C16.15 4.09 16.73 4.22 17.24 4.42C17.77 4.62 18.21 4.9 18.66 5.34C19.1 5.79 19.38 6.23 19.58 6.76C19.78 7.27 19.91 7.85 19.95 8.7C19.99 9.55 20 9.83 20 12C20 14.17 19.99 14.45 19.95 15.3V15.3Z" fill="url(#paint2_linear_125_17169)"/>
<defs>
<linearGradient id="paint0_linear_125_17169" x1="22.228" y1="21.092" x2="3.76901" y2="4.68301" gradientUnits="userSpaceOnUse">
<stop stop-color="#E39460"/>
<stop offset="0.475" stop-color="#CD4676"/>
</linearGradient>
<linearGradient id="paint1_linear_125_17169" x1="22.228" y1="21.0919" x2="3.769" y2="4.68294" gradientUnits="userSpaceOnUse">
<stop stop-color="#E39460"/>
<stop offset="0.528" stop-color="#CD4676"/>
<stop offset="1" stop-color="#663FB5"/>
</linearGradient>
<linearGradient id="paint2_linear_125_17169" x1="22.228" y1="21.092" x2="3.769" y2="4.683" gradientUnits="userSpaceOnUse">
<stop stop-color="#E39460"/>
<stop offset="0.528" stop-color="#CD4676"/>
<stop offset="1" stop-color="#663FB5"/>
</linearGradient>
</defs>
</svg>
