<svg width="72" height="72" viewBox="0 0 72 72" fill="none" xmlns="http://www.w3.org/2000/svg">
<path opacity="0.08" d="M33.4001 17.4002L19.3001 18.4002C18.8001 17.3002 17.7001 16.5002 16.4001 16.6002L12.4001 16.9002C11.1001 17.0002 10.1001 17.9002 9.70005 19.1002H9.50005H9.30005C8.30005 19.3002 7.60005 20.2002 7.70005 21.2002L10.5001 61.1002C10.6001 62.2002 11.5001 63.0002 12.6001 63.0002L40.5001 61.0002C41.6001 60.9002 42.4001 60.0002 42.4001 58.9002L39.9001 23.0002L33.4001 17.4002Z" fill="black"/>
<path d="M45 21.1V57C45 58.1 44.1 59 43 59H15C13.9 59 13 58.1 13 57V17C13 15.9 13.9 15 15 15H38.9L45 21.1Z" fill="url(#paint0_linear_39_9973)"/>
<path d="M38.5 27.2998H19.5C18.7 27.2998 18 26.5998 18 25.7998C18 24.9998 18.7 24.2998 19.5 24.2998H38.5C39.3 24.2998 40 24.9998 40 25.7998C40 26.6998 39.3 27.2998 38.5 27.2998Z" fill="url(#paint1_linear_39_9973)"/>
<path d="M38.9 19.1C38.9 20.2 39.8 21.1 40.9 21.1H45L38.9 15V19.1Z" fill="url(#paint2_linear_39_9973)"/>
<path d="M38.9 19.1C38.9 20.2 39.8 21.1 40.9 21.1H45L38.9 15V19.1Z" fill="url(#paint3_linear_39_9973)"/>
<path d="M37.5 33H19.5C18.7 33 18 32.3 18 31.5C18 30.7 18.7 30 19.5 30H37.5C38.3 30 39 30.7 39 31.5C39 32.3 38.3 33 37.5 33Z" fill="url(#paint4_linear_39_9973)"/>
<path d="M39.5 39H19.5C18.7 39 18 38.3 18 37.5C18 36.7 18.7 36 19.5 36H39.5C40.3 36 41 36.7 41 37.5C41 38.3 40.3 39 39.5 39Z" fill="url(#paint5_linear_39_9973)"/>
<path d="M39.5 45H19.5C18.7 45 18 44.3 18 43.5C18 42.7 18.7 42 19.5 42H39.5C40.3 42 41 42.7 41 43.5C41 44.3 40.3 45 39.5 45Z" fill="url(#paint6_linear_39_9973)"/>
<path d="M37.5 51H19.5C18.7 51 18 50.3 18 49.5C18 48.7 18.7 48 19.5 48H37.5C38.3 48 39 48.7 39 49.5C39 50.3 38.3 51 37.5 51Z" fill="url(#paint7_linear_39_9973)"/>
<path opacity="0.1" d="M31 28.9998C30 27.1998 31.4 16.0998 30.5 14.9998C30.4 14.8998 30.3 14.8998 30.1 14.9998C30.1 14.9998 30.1 14.9998 30 15.0998C24.2 20.8998 24.2 30.3998 30 36.1998C34 40.2998 39.8 41.4998 45 39.8998V35.1998C40.2 35.9998 34.7 35.4998 31 28.9998Z" fill="black"/>
<path d="M47 20.1999V35.6999C45.3 36.4999 43.5 36.9999 41.5 36.9999C38.7 36.9999 36.1 36.0999 34 34.4999C32.7 33.4999 31.6 32.2999 30.8 30.8999C30.2 29.8999 29.8 28.7999 29.4 27.6999C29.1 26.6999 29 25.5999 29 24.4999C29 24.3999 29 24.2999 29 24.0999C29.1 18.9999 32.3 14.6999 36.8 12.8999H39.8L47 20.1999Z" fill="url(#paint8_linear_39_9973)"/>
<path d="M41 25.5001V26.3001C41 27.1001 40.4 27.7001 39.6 27.7001H29.4C29.1 26.7001 29 25.6001 29 24.5001C29 24.4001 29 24.3001 29 24.1001H39.6C40.4 24.1001 41 24.7001 41 25.5001Z" fill="url(#paint9_linear_39_9973)"/>
<path d="M39.7 17.7999C39.7 19.0999 40.7999 20.1999 42.0999 20.1999H47L39.7 12.8999V17.7999Z" fill="url(#paint10_linear_39_9973)"/>
<path d="M39.7 17.7999C39.7 19.0999 40.7999 20.1999 42.0999 20.1999H47L39.7 12.8999V17.7999Z" fill="url(#paint11_linear_39_9973)"/>
<path d="M39.8 32.2999V33.0999C39.8 33.8999 39.2001 34.4999 38.4001 34.4999H34C32.7 33.4999 31.6 32.2999 30.8 30.8999H38.5C39.2 30.8999 39.8 31.5999 39.8 32.2999Z" fill="url(#paint12_linear_39_9973)"/>
<path d="M53.8407 28.7161L48.6788 33.8779L54.4771 39.6761L59.6389 34.5143L53.8407 28.7161Z" fill="#FFD100"/>
<path fill-rule="evenodd" clip-rule="evenodd" d="M55.5999 35.7002C54.6999 36.6002 53.7 37.3002 52.7 37.9002L62.4 47.6002C63.2 48.4002 64.5 48.4002 65.3 47.6002L67.5999 45.3002C68.3999 44.5002 68.3999 43.2002 67.5999 42.4002L57.9 32.7002C57.2 33.8002 56.4999 34.8002 55.5999 35.7002Z" fill="url(#paint13_linear_39_9973)"/>
<path opacity="0.5" d="M41.9 35.6002C48.3617 35.6002 53.5999 30.3619 53.5999 23.9002C53.5999 17.4385 48.3617 12.2002 41.9 12.2002C35.4382 12.2002 30.2 17.4385 30.2 23.9002C30.2 30.3619 35.4382 35.6002 41.9 35.6002Z" fill="white"/>
<path d="M53.1 34.2C47.3 40 37.8 40 32 34.2C26.2 28.4 26.2 18.9 32 13.1C37.8 7.3 47.3 7.3 53.1 13.1C58.9 18.9 58.9 28.3 53.1 34.2ZM35.2 16.2C31.1 20.3 31.1 27 35.2 31C39.3 35 46 35.1 50 31C54 26.9 54.1 20.2 50 16.2C45.9 12.2 39.2 12.1 35.2 16.2Z" fill="url(#paint14_linear_39_9973)"/>
<defs>
<linearGradient id="paint0_linear_39_9973" x1="53.4543" y1="-10.4702" x2="10.9554" y2="72.0278" gradientUnits="userSpaceOnUse">
<stop stop-color="#00C4BB"/>
<stop offset="1" stop-color="#009185"/>
</linearGradient>
<linearGradient id="paint1_linear_39_9973" x1="36.3822" y1="4.9859" x2="23.6322" y2="40.9858" gradientUnits="userSpaceOnUse">
<stop stop-color="#009796"/>
<stop offset="1" stop-color="#005E5D"/>
</linearGradient>
<linearGradient id="paint2_linear_39_9973" x1="68.1954" y1="-10.3315" x2="41.7947" y2="18.2197" gradientUnits="userSpaceOnUse">
<stop stop-color="#009796"/>
<stop offset="1" stop-color="#005E5D"/>
</linearGradient>
<linearGradient id="paint3_linear_39_9973" x1="71.3538" y1="15.855" x2="32.5744" y2="18.7308" gradientUnits="userSpaceOnUse">
<stop stop-color="#009796"/>
<stop offset="1" stop-color="#005E5D"/>
</linearGradient>
<linearGradient id="paint4_linear_39_9973" x1="35.6185" y1="11.4009" x2="23.3239" y2="46.1148" gradientUnits="userSpaceOnUse">
<stop stop-color="#009796"/>
<stop offset="1" stop-color="#005E5D"/>
</linearGradient>
<linearGradient id="paint5_linear_39_9973" x1="37.146" y1="15.9114" x2="23.9404" y2="53.1978" gradientUnits="userSpaceOnUse">
<stop stop-color="#009796"/>
<stop offset="1" stop-color="#005E5D"/>
</linearGradient>
<linearGradient id="paint6_linear_39_9973" x1="37.146" y1="21.9113" x2="23.9404" y2="59.1978" gradientUnits="userSpaceOnUse">
<stop stop-color="#009796"/>
<stop offset="1" stop-color="#005E5D"/>
</linearGradient>
<linearGradient id="paint7_linear_39_9973" x1="35.6186" y1="29.4007" x2="23.3239" y2="64.1152" gradientUnits="userSpaceOnUse">
<stop stop-color="#009796"/>
<stop offset="1" stop-color="#005E5D"/>
</linearGradient>
<linearGradient id="paint8_linear_39_9973" x1="50.5919" y1="4.1516" x2="32.0316" y2="40.1804" gradientUnits="userSpaceOnUse">
<stop stop-color="#00C4BB"/>
<stop offset="1" stop-color="#009185"/>
</linearGradient>
<linearGradient id="paint9_linear_39_9973" x1="40.2156" y1="10.65" x2="30.8397" y2="37.1234" gradientUnits="userSpaceOnUse">
<stop stop-color="#009796"/>
<stop offset="1" stop-color="#005E5D"/>
</linearGradient>
<linearGradient id="paint10_linear_39_9973" x1="74.8019" y1="-17.4187" x2="43.1581" y2="16.8027" gradientUnits="userSpaceOnUse">
<stop stop-color="#009796"/>
<stop offset="1" stop-color="#005E5D"/>
</linearGradient>
<linearGradient id="paint11_linear_39_9973" x1="78.5859" y1="13.969" x2="32.105" y2="17.4159" gradientUnits="userSpaceOnUse">
<stop stop-color="#009796"/>
<stop offset="1" stop-color="#005E5D"/>
</linearGradient>
<linearGradient id="paint12_linear_39_9973" x1="39.1283" y1="21.2992" x2="32.3829" y2="40.3448" gradientUnits="userSpaceOnUse">
<stop stop-color="#009796"/>
<stop offset="1" stop-color="#005E5D"/>
</linearGradient>
<linearGradient id="paint13_linear_39_9973" x1="67.5899" y1="26.3912" x2="57.9268" y2="46.2262" gradientUnits="userSpaceOnUse">
<stop stop-color="#00C4BB"/>
<stop offset="1" stop-color="#009185"/>
</linearGradient>
<linearGradient id="paint14_linear_39_9973" x1="46.616" y1="11.8956" x2="38.9112" y2="34.248" gradientUnits="userSpaceOnUse">
<stop stop-color="#009695"/>
<stop offset="1" stop-color="#005E5D"/>
</linearGradient>
</defs>
</svg>
