<svg width="24" height="24" viewBox="0 0 24 24" fill="none" xmlns="http://www.w3.org/2000/svg">
<path d="M19 2H5C3.34 2 2 3.34 2 5V19C2 20.66 3.34 22 5 22H19C20.66 22 22 20.66 22 19V5C22 3.34 20.66 2 19 2ZM8 19H5V9.8H8V19ZM6.44 8.6H6.42C5.44 8.6 4.8 7.87 4.8 6.95C4.8 6.01 5.46 5.3 6.46 5.3C7.46 5.3 8.08 6.01 8.1 6.95C8.1 7.87 7.46 8.6 6.44 8.6ZM19 19H16.05V14.08C16.05 12.84 15.62 12 14.56 12C13.74 12 13.26 12.57 13.05 13.12C12.97 13.31 12.95 13.59 12.95 13.86V19H10C10 19 10.02 15.29 10.02 12.57C10.02 11.2 10.01 10.09 10 9.8H12.95V11.1C13.34 10.47 14.04 9.58 15.61 9.58C17.55 9.58 19 10.9 19 13.72V19V19Z" fill="#0E76A8"/>
</svg>
